<svg width="454" height="120" viewBox="0 0 454 120" fill="none" xmlns="http://www.w3.org/2000/svg">
<path d="M50.6146 0C82.5162 0 100.729 21.7095 100.729 49.5657C100.729 77.4218 84.3236 99.3162 50.6146 99.3162C16.9055 99.3162 0.5 76.8788 0.5 49.5657C0.5 22.2526 19.9679 0 50.6146 0ZM50.6146 83.9381C68.4592 83.9381 79.4538 69.1031 79.4538 49.5657C79.4538 30.0282 68.4477 15.0199 50.6146 15.0199C32.7815 15.0199 21.7754 30.0282 21.7754 49.5657C21.7754 69.1031 32.77 83.9381 50.6146 83.9381ZM134.795 96.4162C135.152 97.1325 134.979 97.3174 134.622 97.8604C133.172 100.033 130.294 102.205 125.965 102.205C120.37 102.205 116.951 99.3046 114.602 98.0453C113.52 97.5022 112.081 97.3289 111.183 98.4034L103.25 107.092C101.8 108.363 101.8 110.35 103.25 111.609C108.305 116.497 119.115 119.743 126.863 119.212C143.625 117.756 148.679 108.536 157.867 87.9126L186.349 24.2398C187.247 22.2526 185.635 20.0804 183.643 20.0804H167.238C165.971 20.0804 164.889 20.9816 164.348 22.2526L145.237 73.9903C144.88 74.8915 143.614 74.8915 143.257 73.9903L123.064 22.2526C122.523 20.9816 121.613 20.0804 120.358 20.0804H103.78C101.616 20.0804 100.165 22.2526 100.89 24.2398C101.247 24.2398 134.243 95.3301 134.772 96.4277L134.795 96.4162ZM225.469 99.3162C245.846 99.3162 258.453 89.3684 258.453 75.4345C258.453 46.4924 205.46 54.9844 205.46 38.89C205.46 34.1876 209.777 31.2876 217.168 31.2876C227.081 31.2876 236.636 35.447 242.404 43.4075C243.302 44.6784 244.925 45.0366 246.192 44.3087L256.104 38.8784C257.727 37.9772 258.268 36.1633 257.186 34.7191C248.529 22.0561 232.848 17.3538 218.066 17.3538C198.967 17.3538 185.98 26.7585 185.98 41.0505C185.98 70.7206 237.35 60.7612 237.35 75.7811C237.35 80.4835 234.46 83.5568 226.355 83.5568C216.627 83.5568 207.785 80.1138 201.661 73.2509C200.763 72.1648 199.68 70.5357 197.7 71.4369L183.643 77.7684C182.02 78.4847 181.663 80.2987 182.93 81.7429C196.618 98.0221 212.851 99.2931 225.469 99.2931V99.3162ZM257.013 21.5247L279.544 2.17211C281.524 0.543027 284.045 2.17211 284.045 3.80119V19.7223C284.045 19.9071 284.229 20.0804 284.402 20.0804H304.779C306.403 20.0804 307.842 21.5362 307.842 23.1537V32.0155C307.842 33.6561 306.403 35.0888 304.779 35.0888H284.402C284.229 35.0888 284.045 35.2736 284.045 35.447V64.7473C284.045 69.6345 284.402 82.6556 295.04 82.2975C298.286 82.2975 301.533 81.3963 304.054 80.1254C304.768 79.7672 305.85 79.9521 306.391 80.8417L313.782 91.8871C314.323 92.7883 314.139 93.8743 313.241 94.4174C305.677 99.3046 293.417 100.021 286.566 98.75C272.866 96.0349 263.311 88.6174 263.311 67.8206V36.3597C263.311 34.3725 262.77 33.1015 261.515 31.6573L256.277 25.5107C255.194 24.2398 255.736 22.6107 257.002 21.5362L257.013 21.5247ZM347.503 17.3653C373.648 17.1804 387.164 34.9155 387.705 60.7844C387.878 62.4134 386.439 63.8577 384.815 63.8577H329.29C328.749 63.8577 328.576 64.2158 328.576 64.574C330.556 77.9533 338.132 84.2847 348.954 84.2847C358.682 84.2847 364.45 78.6811 367.696 73.2509C368.237 72.1648 369.504 71.6218 370.759 71.98L385 76.1393C386.45 76.4975 387.164 78.1266 386.623 79.5708C381.212 91.5174 366.982 99.2931 348.954 99.2931C322.267 99.2931 307.485 82.8289 307.485 57.5031C307.485 32.1772 325.33 17.3422 347.503 17.3422V17.3653ZM329.117 50.6517L366.43 50.4784C366.614 50.4784 366.971 50.4784 366.787 49.7621C364.806 38.5434 358.313 31.6689 347.503 31.6689C336.693 31.6689 330.199 39.9876 328.576 49.9469C328.403 50.6633 328.933 50.6633 329.117 50.6633V50.6517ZM452.775 30.5713C453.673 31.6573 453.857 33.2864 452.59 34.3725L441.769 43.4191C440.502 44.5051 438.879 44.3202 437.808 43.0609C436.185 40.8888 433.123 36.7294 427.712 36.7294C423.567 36.9143 419.607 38.1852 416.36 43.4191C414.023 46.8621 413.298 50.8366 413.298 54.9959V94.0708C413.298 95.6998 412.031 96.9708 410.408 96.9708H395.269C393.646 96.9708 392.379 95.6998 392.379 94.0708V23.1537C392.379 21.5247 393.646 20.0804 395.269 20.0804H404.64C405.907 20.0804 406.989 20.4386 407.53 22.4374L409.522 30.0282C409.694 30.3864 410.235 30.5713 410.604 30.2131C413.309 25.8689 418.893 19.7223 429.531 18.8095C439.627 18.0932 446.477 22.6107 452.786 30.5713H452.775Z" fill="black"/>
</svg>
