<?xml version="1.0" encoding="UTF-8"?>
<svg version="1.1" xmlns="http://www.w3.org/2000/svg" width="1536" height="1024">
<path d="M0 0 C0.78890625 0.55945313 1.5778125 1.11890625 2.390625 1.6953125 C3.18726563 2.34113281 3.18726563 2.34113281 4 3 C4 3.66 4 4.32 4 5 C4.66 5 5.32 5 6 5 C9.23328532 8.46806745 12.08581474 12.2625457 15 16 C15.68964844 16.87527344 16.37929688 17.75054687 17.08984375 18.65234375 C36.24363585 43.87466404 42.65792331 74.14970391 38.71484375 105.2890625 C34.68398925 133.34109618 19.31577654 159.51612949 -3 177 C-26.15403665 194.2936418 -52.08546268 202.15812566 -81 201 C-82.12019531 200.98195313 -83.24039063 200.96390625 -84.39453125 200.9453125 C-112.96421784 199.91084036 -141.07024183 186.17252231 -160.75390625 165.5859375 C-176.84848297 147.05618134 -187.8962414 124.66656955 -190 100 C-190.10634766 98.95537598 -190.10634766 98.95537598 -190.21484375 97.88964844 C-193.24950733 67.34336376 -184.35414999 36.91880801 -165 13 C-162.087782 9.57889962 -159.07919374 6.27093841 -156 3 C-155.19175781 2.09507812 -155.19175781 2.09507812 -154.3671875 1.171875 C-136.3869006 -18.16370991 -109.22936704 -28.59233143 -83.26220703 -29.93457031 C-51.15768684 -30.86312756 -24.42490781 -20.13404562 0 0 Z M-54 20 C-60.24284201 25.73790626 -62.97092795 32.6106597 -63.375 41.0625 C-62.53514687 49.88095784 -59.62341954 56.01073765 -53 62 C-46.5991895 65.89068873 -40.39030843 66.77180617 -33 66 C-26.42752008 64.16427116 -20.28430509 61.64622141 -16.55859375 55.69921875 C-13.2364468 49.66368768 -13.2364468 49.66368768 -14 43 C-13.34 43 -12.68 43 -12 43 C-12.03173021 34.6549541 -13.59820488 28.49352634 -19 22 C-28.90500796 12.71044885 -43.33880198 11.23412607 -54 20 Z " fill="#000000" transform="translate(846,384)"/>
<path d="M0 0 C5.51485471 1.19809049 10.97348543 2.59060749 16.4375 4 C18.01011003 4.40030521 19.58286663 4.80003506 21.15576172 5.19921875 C24.43131572 6.03206664 27.70562533 6.86958074 30.97900391 7.7109375 C35.1783677 8.79023285 39.37982167 9.86109997 43.58210754 10.92895508 C47.59716482 11.9496636 51.6111006 12.97474962 55.625 14 C56.39069305 14.19513184 57.15638611 14.39026367 57.94528198 14.59130859 C60.10217584 15.14176937 62.25823806 15.69536786 64.4140625 16.25 C65.6407666 16.56453125 66.8674707 16.8790625 68.13134766 17.203125 C71 18 71 18 73 19 C71.9123293 22.2630121 71.24933287 22.87839928 68.6875 25 C65.04656473 28.08531678 61.50489529 31.26182944 58 34.5 C54.60314275 37.63180909 51.18712314 40.73284918 47.6875 43.75 C45.1891729 45.91349975 42.81858508 48.1449428 40.5 50.5 C37.56972696 53.47626387 34.49945959 56.21627771 31.33984375 58.9453125 C22.91056873 66.3473136 14.79504313 74.11880665 6.59863281 81.77636719 C-2.03626681 89.84065909 -10.70195113 97.86749731 -19.5 105.75390625 C-24.01951329 109.81440647 -28.5078674 113.90925568 -33 118 C-31.68572922 120.93747848 -30.31497601 122.8980337 -27.9453125 125.06640625 C-27.33631104 125.62900146 -26.72730957 126.19159668 -26.09985352 126.77124023 C-25.44815186 127.36235596 -24.7964502 127.95347168 -24.125 128.5625 C-23.45460693 129.17875244 -22.78421387 129.79500488 -22.09350586 130.42993164 C-20.72235167 131.68919471 -19.3488969 132.94595742 -17.97314453 134.20019531 C-16.18319009 135.83290307 -14.40038448 137.47287745 -12.62109375 139.1171875 C-8.51344089 142.90665986 -4.38881338 146.66859824 -0.16796875 150.33203125 C4.07342992 154.03280552 8.16769694 157.87542371 12.25 161.75 C24.37656825 173.20891267 24.37656825 173.20891267 36.8203125 184.3203125 C41.82466767 188.68649273 46.62628642 193.25948709 51.43945312 197.83398438 C52.45362305 198.79208008 52.45362305 198.79208008 53.48828125 199.76953125 C54.09196533 200.34292236 54.69564941 200.91631348 55.31762695 201.50708008 C57.13755481 203.19091179 57.13755481 203.19091179 60 205 C60 205.66 60 206.32 60 207 C60.87978516 207.38865234 60.87978516 207.38865234 61.77734375 207.78515625 C64.15597158 209.08524984 65.68918393 210.48874838 67.5625 212.4375 C68.43068359 213.33275391 68.43068359 213.33275391 69.31640625 214.24609375 C69.87199219 214.82488281 70.42757812 215.40367187 71 216 C71.99863212 217.00136601 72.99842341 218.00157908 74 219 C67.66713766 221.52845045 61.30779877 223.3160108 54.6953125 224.9609375 C53.07832962 225.36960556 53.07832962 225.36960556 51.42868042 225.78652954 C47.99519279 226.65367766 44.56022056 227.51474499 41.125 228.375 C36.62688967 229.50499113 32.12955319 230.63800862 27.6328125 231.7734375 C26.54542786 232.04750427 25.45804321 232.32157104 24.33770752 232.60394287 C17.05855035 234.44878256 9.81155605 236.38619984 2.59744263 238.4715271 C0.73790722 239.00347801 -1.13081472 239.503019 -3 240 C-4.05695068 240.28721924 -5.11390137 240.57443848 -6.20288086 240.87036133 C-9 241 -9 241 -11.31420898 239.49633789 C-12.03423096 238.74602295 -12.75425293 237.99570801 -13.49609375 237.22265625 C-14.30240234 236.39830078 -15.10871094 235.57394531 -15.93945312 234.72460938 C-16.76380859 233.84611328 -17.58816406 232.96761719 -18.4375 232.0625 C-19.25798828 231.21880859 -20.07847656 230.37511719 -20.92382812 229.50585938 C-25.23439402 225.04392484 -29.37764312 220.46407072 -33.43383789 215.77124023 C-35.68316651 213.22737755 -38.07017965 210.8726481 -40.5 208.5 C-43.55535564 205.49003881 -46.54089242 202.464312 -49.3125 199.1875 C-54.37187672 193.24769252 -60.05276833 187.8649471 -65.59887695 182.38525391 C-67.43681634 180.56813104 -69.14259845 178.81619929 -70.73046875 176.76953125 C-73.39708838 173.51542915 -76.30815114 170.62604756 -79.3125 167.6875 C-83.49698465 163.55407395 -87.52005873 159.37735654 -91.328125 154.890625 C-93.29754029 152.66352921 -95.38374342 150.58785046 -97.5 148.5 C-100.18326093 145.85269566 -102.75256901 143.18903057 -105.1875 140.3125 C-109.28570982 135.50198228 -113.84005685 131.13877064 -118.37768555 126.74731445 C-118.97363525 126.16296631 -119.56958496 125.57861816 -120.18359375 124.9765625 C-120.72556396 124.45143066 -121.26753418 123.92629883 -121.82592773 123.38525391 C-123 122 -123 122 -123 120 C-123.66 119.67 -124.32 119.34 -125 119 C-124.50371094 118.5153125 -124.00742187 118.030625 -123.49609375 117.53125 C-122.81675781 116.8609375 -122.13742187 116.190625 -121.4375 115.5 C-120.44556641 114.52546875 -120.44556641 114.52546875 -119.43359375 113.53125 C-117.46840754 111.48720399 -115.61654039 109.41365575 -113.76953125 107.265625 C-109.80974307 102.70551443 -105.55598196 98.48083394 -101.25 94.25 C-99.75284743 92.77843978 -98.25796734 91.30456316 -96.765625 89.828125 C-96.11368164 89.1877832 -95.46173828 88.54744141 -94.79003906 87.88769531 C-92.93683261 86.01843872 -92.93683261 86.01843872 -91.38964844 83.76074219 C-90.93106445 83.17969727 -90.47248047 82.59865234 -90 82 C-89.34 82 -88.68 82 -88 82 C-87.7321167 81.40541992 -87.4642334 80.81083984 -87.18823242 80.19824219 C-85.98789327 77.97760243 -84.79297002 76.5756393 -82.98828125 74.828125 C-82.09786133 73.95414063 -82.09786133 73.95414063 -81.18945312 73.0625 C-80.57005859 72.464375 -79.95066406 71.86625 -79.3125 71.25 C-75.63240517 67.67663187 -72.03674981 64.10200846 -68.69921875 60.203125 C-63.40026569 54.05506169 -57.51416982 48.47153659 -51.73828125 42.77734375 C-47.20689721 38.28519247 -42.83402377 33.75357226 -38.68457031 28.90722656 C-35.66222323 25.48540404 -32.38390386 22.31949865 -29.125 19.125 C-27.7919881 17.81742726 -26.46114384 16.50763985 -25.1328125 15.1953125 C-24.55418457 14.62828613 -23.97555664 14.06125977 -23.37939453 13.47705078 C-21.89627065 12.02889834 -21.89627065 12.02889834 -21 10 C-20.34 10 -19.68 10 -19 10 C-18.67 9.01 -18.34 8.02 -18 7 C-17.34 7 -16.68 7 -16 7 C-15.7525 6.4225 -15.505 5.845 -15.25 5.25 C-11.19198968 -2.05441858 -7.60371643 -1.27317221 0 0 Z " fill="#000000" transform="translate(465,350)"/>
<path d="M0 0 C1.83642578 1.85766602 1.83642578 1.85766602 3.8203125 4.19140625 C10.17679738 11.43196595 17.04240588 18.14976806 23.875 24.9375 C25.20596472 26.26343547 26.53669546 27.58960585 27.8671875 28.91601562 C30.77559497 31.81469835 33.68618661 34.71116594 36.59884644 37.60557556 C37.06122711 38.06573563 37.52360779 38.52589569 38 39 C38.51754852 39.50694397 39.03509705 40.01388794 39.56832886 40.53619385 C41 42 41 42 42.76660156 44.26489258 C45.54464715 47.66699628 48.60229659 50.68800253 51.734375 53.76171875 C53.0430992 55.057811 54.35168908 56.35403889 55.66015625 57.65039062 C57.71475953 59.6800582 59.77092797 61.70809137 61.82958984 63.73364258 C63.82300855 65.69701569 65.81029381 67.6664311 67.796875 69.63671875 C68.41866638 70.24505051 69.04045776 70.85338226 69.68109131 71.48014832 C71.15899016 72.94925108 72.58510632 74.47012294 74 76 C74 76.66 74 77.32 74 78 C74.66 78 75.32 78 76 78 C77.41235352 79.43798828 77.41235352 79.43798828 79.06640625 81.4453125 C83.81128372 87.02795547 89.05088639 92.06717733 94.29882812 97.171875 C95.03423828 97.89632812 95.76964844 98.62078125 96.52734375 99.3671875 C97.19499756 100.01800293 97.86265137 100.66881836 98.55053711 101.33935547 C100 103 100 103 100 105 C101.32 105.66 102.64 106.32 104 107 C104 107.66 104 108.32 104 109 C104.66 109 105.32 109 106 109 C109.91327696 112.71945899 113.51460715 116.71860321 115 122 C114.41992188 122.07863281 113.83984375 122.15726562 113.2421875 122.23828125 C110.25385278 123.25348207 109.14896233 124.77370835 107.125 127.1875 C103.2158382 131.69856916 99.12539912 135.93465537 94.875 140.125 C90.70566173 144.24888246 86.68956375 148.39784442 82.90234375 152.87890625 C79.71688351 156.43066171 76.2922635 159.74880752 72.88061523 163.08227539 C69.98985715 165.92714142 67.241262 168.83249457 64.59375 171.90625 C60.30654835 176.86762954 55.63915147 181.41140699 50.9609375 186 C47.02996164 189.88544332 43.32141914 193.87527415 39.71484375 198.0625 C36.9511456 201.18503823 33.97848594 204.08421034 31 207 C26.74424556 211.20676734 22.63598044 215.44049908 18.76953125 220.01171875 C16.45228949 222.61541865 13.98001563 225.05322855 11.5 227.5 C7.11578323 231.8358392 2.98325182 236.29678317 -1 241 C-13.92930394 238.68882231 -26.43548422 235.21072266 -39.05517578 231.61035156 C-41.66796207 230.86712076 -44.28305773 230.13248067 -46.8984375 229.3984375 C-47.67988129 229.17239838 -48.46132507 228.94635925 -49.26644897 228.71347046 C-54.51328997 227.24446745 -59.57079144 226.48351044 -65 226 C-65 225.34 -65 224.68 -65 224 C-65.61746094 223.87882813 -66.23492188 223.75765625 -66.87109375 223.6328125 C-72.5999224 222.49925432 -78.30352707 221.28630034 -84 220 C-84 219.34 -84 218.68 -84 218 C-82.57008411 216.73376779 -81.07605731 215.53996684 -79.5625 214.375 C-73.46497212 209.50961506 -67.83044617 204.23541411 -62.19165039 198.84912109 C-58.18119183 195.0247463 -54.10561334 191.31162701 -49.91723633 187.68310547 C-46.3547744 184.5556876 -42.92598346 181.28127144 -39.49414062 178.01171875 C-37.0121086 175.68647779 -35.2669713 174.08899043 -32 173 C-32 172.34 -32 171.68 -32 171 C-30.70703125 169.6953125 -30.70703125 169.6953125 -28.8125 168.125 C-24.94042713 164.83167112 -21.17094533 161.44843726 -17.4375 158 C-16.87111816 157.47720459 -16.30473633 156.95440918 -15.72119141 156.41577148 C-12.26487606 153.21094365 -8.90205482 149.93583915 -5.6015625 146.5703125 C-3.81730294 144.82086777 -1.95603876 143.19284418 -0.0625 141.5625 C3.46294053 138.52613792 6.72478254 135.29780989 9.984375 131.98046875 C12.58696859 129.42326923 15.33766345 127.07215213 18.140625 124.73828125 C20.35255632 122.67040428 22.15490997 120.3961678 24 118 C11.90545587 106.54606051 11.90545587 106.54606051 -0.4140625 95.3359375 C-3.81427835 92.26444343 -7.15602108 89.13247587 -10.5 86 C-15.45617869 81.35885091 -20.44120192 76.75878233 -25.51171875 72.2421875 C-27.42884497 70.51466717 -29.32313569 68.7710097 -31.20703125 67.0078125 C-32.02747925 66.24343872 -32.02747925 66.24343872 -32.86450195 65.46362305 C-33.9358415 64.46393003 -35.00354011 63.4603175 -36.06713867 62.45239258 C-38.60806567 59.79561604 -38.60806567 59.79561604 -42 59 C-43.45629883 57.50708008 -43.45629883 57.50708008 -45.14453125 55.45703125 C-48.74362546 51.22723509 -52.60513384 47.44563852 -56.6875 43.6875 C-57.38157959 43.04304932 -58.07565918 42.39859863 -58.79077148 41.73461914 C-60.85665826 39.81885774 -62.92778553 37.9089122 -65 36 C-66.15374205 34.93239564 -67.30739497 33.86469494 -68.4609375 32.796875 C-73.55476583 28.09379538 -78.69334989 23.46241032 -84 19 C-81.87665248 17.93832624 -80.19076825 17.61639824 -77.85693359 17.20019531 C-71.30799979 15.92738932 -64.9016695 14.15610784 -58.47163773 12.39388275 C-56.24464645 11.78472572 -54.01609682 11.18162699 -51.78695679 10.5803833 C-45.45706066 8.87308195 -39.12788607 7.1634424 -32.80517578 5.4296875 C-28.91954364 4.36467601 -25.03037879 3.31358718 -21.13850021 2.27164459 C-19.66111156 1.87329997 -18.1851122 1.4697648 -16.71059036 1.06093597 C-14.65623031 0.49193672 -12.5978421 -0.05920139 -10.53759766 -0.60644531 C-9.36862946 -0.92462219 -8.19966125 -1.24279907 -6.99526978 -1.57061768 C-3.74858913 -2.03604062 -2.63717517 -1.85974434 0 0 Z " fill="#000000" transform="translate(1085,350)"/>
<path d="M0 0 C1.28344727 1.78735352 1.28344727 1.78735352 2.56640625 4.12890625 C3.04658203 4.9907251 3.52675781 5.85254395 4.02148438 6.74047852 C4.53001953 7.67174561 5.03855469 8.6030127 5.5625 9.5625 C6.64457302 11.50143224 7.72923506 13.43892174 8.81640625 15.375 C9.35539551 16.33535156 9.89438477 17.29570313 10.44970703 18.28515625 C12.53718637 21.94071062 14.74254732 25.51014227 17 29.0625 C21.12145824 35.56760066 25.11000038 42.14261369 29.05786133 48.75439453 C32.3415665 54.24831554 35.65403463 59.72368885 38.98675537 65.1880188 C48.84412236 81.35142341 58.47686014 97.63756336 68 114 C50.97918663 127.10292663 19.43049453 137.48989371 -2 137 C-2 137.99 -2 138.98 -2 140 C-2.88171875 139.8040625 -3.7634375 139.608125 -4.671875 139.40625 C-10.55327177 138.56520434 -16.40984711 139.72002373 -22.25 140.5 C-24.58775197 140.80813506 -26.92627386 141.1105006 -29.265625 141.40625 C-30.29461914 141.54353516 -31.32361328 141.68082031 -32.38378906 141.82226562 C-35 142 -35 142 -38 141 C-40.38297872 120.46808511 -40.38297872 120.46808511 -40 111 C-40.66 110.67 -41.32 110.34 -42 110 C-41.96841797 108.73124023 -41.93683594 107.46248047 -41.90429688 106.15527344 C-41.90935015 97.91086198 -42.79285195 89.71952815 -43.53125 81.515625 C-43.6886452 79.72829101 -43.84557906 77.94091635 -44.0020752 76.15350342 C-44.41272062 71.47352938 -44.82808443 66.79398806 -45.24493408 62.11456299 C-45.91294635 54.61233283 -46.5759529 47.10966758 -47.23472595 39.60662079 C-47.46503906 36.99520171 -47.6987441 34.38410163 -47.93273926 31.77301025 C-48.074431 30.16802099 -48.2159985 28.56302075 -48.35742188 26.95800781 C-48.42287704 26.2378801 -48.48833221 25.51775238 -48.55577087 24.77580261 C-48.8992583 20.83734062 -49.06343624 16.95300306 -49 13 C-45.3110491 11.50447936 -42.05792259 10.88918834 -38.125 10.6875 C-26.60427623 9.77961688 -15.77103159 5.23342387 -5.57421875 0.0390625 C-3 -1 -3 -1 0 0 Z " fill="#000000" transform="translate(834,640)"/>
<path d="M0 0 C3.74820636 1.444263 7.32695705 3.11753521 10.9375 4.875 C22.81986561 10.36224974 35.20015811 12.75976304 48 15 C46.67220547 29.03285495 45.05404303 43.00925496 43.25 56.98828125 C42.98837786 59.03123596 42.72698967 61.07422064 42.46582031 63.11723328 C41.78516797 68.43640297 41.10118548 73.75513916 40.41650391 79.0737915 C39.86087412 83.39433417 39.30760141 87.71517712 38.75445557 92.0360384 C34.07768283 128.5672331 34.07768283 128.5672331 32 144 C-2.34755283 141.3487488 -36.52787309 134.2405409 -67.62890625 119.06640625 C-69.87069079 117.86327425 -69.87069079 117.86327425 -72 118 C-70.40567762 111.88673839 -67.11316361 106.93441214 -63.8125 101.625 C-63.19391113 100.61985352 -62.57532227 99.61470703 -61.93798828 98.57910156 C-59.96625467 95.38129372 -57.98457191 92.18985404 -56 89 C-55.3620752 87.97293945 -54.72415039 86.94587891 -54.06689453 85.88769531 C-49.73108519 78.9126494 -45.37224906 71.95225345 -41 65 C-40.47164551 64.15985352 -39.94329102 63.31970703 -39.39892578 62.45410156 C-33.04422182 52.357614 -26.6430776 42.29085201 -20.23486328 32.22827148 C-16.25099079 25.97083079 -12.27605356 19.70783195 -8.3125 13.4375 C-7.81943359 12.65826172 -7.32636719 11.87902344 -6.81835938 11.07617188 C-4.50227654 7.40877002 -2.21009006 3.73276081 0 0 Z " fill="#000000" transform="translate(708,638)"/>
<path d="M0 0 C1.98944237 15.1171633 3.20051229 30.30734239 4.48748779 45.49624634 C5.13972944 53.1909091 5.80244579 60.88466833 6.46875 68.578125 C6.53425426 69.3347172 6.59975853 70.09130939 6.66724777 70.87082863 C8.2629869 89.26550607 10.06205928 107.63827265 12 126 C11.36610352 126.07516846 10.73220703 126.15033691 10.07910156 126.2277832 C-5.54758434 128.10519925 -19.69326145 130.20728033 -34.06640625 136.79296875 C-37 138 -37 138 -40 138 C-40.43828125 137.20980469 -40.8765625 136.41960937 -41.328125 135.60546875 C-45.75713244 127.72867706 -50.4430511 120.06218704 -55.30053711 112.44287109 C-58.89734882 106.78570634 -62.38528333 101.07378923 -65.8125 95.3125 C-72.1748924 84.6262647 -78.78476189 74.09946156 -85.39501953 63.56542969 C-87.34394548 60.45023135 -89.26944164 57.32179079 -91.1875 54.1875 C-96.36708693 45.73478164 -101.69340101 37.37331338 -107 29 C-91.41576703 12.47845656 -54.44083626 6.583891 -33 3 C-32.26765137 2.87689453 -31.53530273 2.75378906 -30.78076172 2.62695312 C-20.68623215 0.98934766 -10.24236484 0 0 0 Z " fill="#000000" transform="translate(744,159)"/>
<path d="M0 0 C35.96171741 0.11600554 75.97010683 9.57779997 107 28 C105.46559871 32.43550975 103.07432464 36.09758043 100.4375 39.9375 C99.52642505 41.28453534 98.61628776 42.63220529 97.70703125 43.98046875 C97.25021973 44.6564209 96.7934082 45.33237305 96.32275391 46.02880859 C90.33154588 54.95701339 84.66589551 64.10617011 78.93188477 73.20043945 C65.20232992 94.95478951 51.36021457 116.65490764 37 138 C32.61674605 136.56186432 28.2463805 135.10733833 23.921875 133.5 C14.59058425 130.10639903 5.60755726 128.05169839 -4.27050781 126.9375 C-5.11967773 126.83953125 -5.96884766 126.7415625 -6.84375 126.640625 C-7.59849609 126.56360352 -8.35324219 126.48658203 -9.13085938 126.40722656 C-11 126 -11 126 -13 124 C-13 123.01 -13 122.02 -13 121 C-12.34 121 -11.68 121 -11 121 C-11.02940674 119.85063965 -11.05881348 118.7012793 -11.08911133 117.51708984 C-11.08388143 110.22342039 -10.26644493 102.97976101 -9.57421875 95.7265625 C-9.42406409 94.11937121 -9.27431821 92.51214168 -9.12495422 90.90487671 C-8.73017804 86.66671313 -8.33068838 82.429008 -7.92993164 78.19140625 C-7.30056209 71.52883554 -6.67804281 64.86562063 -6.05575943 58.20238495 C-5.90159912 56.55397673 -5.7470464 54.90560516 -5.59209824 53.25727081 C-4.7306072 44.0925057 -3.89823874 34.92646741 -3.13525391 25.75292969 C-3.06665696 24.9320178 -2.99806002 24.11110592 -2.92738438 23.26531792 C-2.6008577 19.34961384 -2.27963085 15.4335893 -1.96696472 11.51675415 C-1.85287362 10.13143774 -1.73864915 8.7461323 -1.62426758 7.36083984 C-1.5272908 6.15197113 -1.43031403 4.94310242 -1.33039856 3.69760132 C-1 1 -1 1 0 0 Z " fill="#000000" transform="translate(797,159)"/>
<path d="M0 0 C1.26171875 1.46875 1.26171875 1.46875 2.6875 3.5 C7.91640987 11.25925226 7.91640987 11.25925226 15 17 C15 17.66 15 18.32 15 19 C15.56203125 19.26554688 16.1240625 19.53109375 16.703125 19.8046875 C19.17930222 21.09331034 21.43844882 22.56130361 23.75 24.125 C24.94882812 24.93324219 24.94882812 24.93324219 26.171875 25.7578125 C26.77515625 26.16773438 27.3784375 26.57765625 28 27 C26.69951624 30.61642461 25.15511099 33.38670534 22.796875 36.4140625 C22.15339111 37.24768311 21.50990723 38.08130371 20.84692383 38.94018555 C20.15493896 39.82617432 19.4629541 40.71216309 18.75 41.625 C17.28915104 43.51859566 15.82953926 45.41314634 14.37109375 47.30859375 C13.26870361 48.73921143 13.26870361 48.73921143 12.14404297 50.19873047 C8.98496375 54.3261815 5.89026398 58.49920713 2.8125 62.6875 C2.24039795 63.46569092 1.6682959 64.24388184 1.07885742 65.0456543 C-3.32797598 71.05554139 -7.68080963 77.10372016 -12.03149414 83.15429688 C-16.78527965 89.74498482 -21.65702192 96.24391905 -26.54345703 102.73657227 C-35.54231152 114.69652842 -44.3326698 126.79805358 -53 139 C-65.48196439 137.23819163 -81.86780769 118.42163103 -90.40625 109.59375 C-92.08695579 107.8480398 -92.08695579 107.8480398 -94.5625 106 C-97.33244704 103.72722294 -99.50260496 101.21653669 -101.828125 98.5 C-104.60378406 95.30499676 -107.45031522 92.17995495 -110.3125 89.0625 C-110.84045166 88.48250244 -111.36840332 87.90250488 -111.91235352 87.30493164 C-114.63369776 84.24850495 -114.63369776 84.24850495 -118 82 C-116.67930402 79.35860805 -115.01518329 78.49965741 -112.5625 76.875 C-111.75941406 76.33617187 -110.95632813 75.79734375 -110.12890625 75.2421875 C-108 74 -108 74 -106 74 C-106 73.34 -106 72.68 -106 72 C-104.26611328 70.60229492 -104.26611328 70.60229492 -101.8203125 68.98046875 C-100.46993896 68.07506348 -100.46993896 68.07506348 -99.09228516 67.15136719 C-98.11308105 66.50329102 -97.13387695 65.85521484 -96.125 65.1875 C-88.87151798 60.32063244 -81.67959475 55.40143297 -74.625 50.25 C-66.51788016 44.34638572 -58.2930048 38.63865989 -50 33 C-46.47870218 30.60484848 -42.95781656 28.20909356 -39.4375 25.8125 C-38.52347412 25.19044678 -37.60944824 24.56839355 -36.66772461 23.92749023 C-26.76300192 17.1757924 -16.92925038 10.32266869 -7.1027832 3.45776367 C-2.1150561 0 -2.1150561 0 0 0 Z " fill="#000000" transform="translate(658,601)"/>
<path d="M0 0 C0.99 0 1.98 0 3 0 C4.40234375 1.87890625 4.40234375 1.87890625 5.9375 4.5625 C8.88530804 9.40532749 12.10469662 13.79662337 15.6875 18.1875 C25.10460805 29.76702236 33.87348247 41.82034053 42.70727539 53.84692383 C47.73837831 60.68025431 52.88071305 67.42389078 58.05078125 74.15234375 C60.55824483 77.41692848 63.03658549 80.70198603 65.5 84 C71.26651956 91.71743552 77.13812074 99.35489974 83 107 C80.5625521 109.48644183 78.0023967 111.61304604 75.25 113.75 C67.35454094 120.04348186 61.17866898 127.02390005 55 135 C50.37818758 132.75030122 46.02738851 130.08441767 41.625 127.4375 C40.72233398 126.89520752 39.81966797 126.35291504 38.88964844 125.79418945 C32.82853943 122.13798253 26.85427076 118.37890211 20.91796875 114.5234375 C6.88687237 105.44383232 -7.38780675 96.73797212 -21.6784668 88.07519531 C-32.05038391 81.77658359 -42.32015678 75.31476411 -52.515625 68.734375 C-53.99289062 67.78304687 -53.99289062 67.78304687 -55.5 66.8125 C-56.3146875 66.28269531 -57.129375 65.75289063 -57.96875 65.20703125 C-60.07949352 63.85529277 -60.07949352 63.85529277 -63 63 C-63.495 61.515 -63.495 61.515 -64 60 C-63.34 60 -62.68 60 -62 60 C-61.60820557 59.12819092 -61.60820557 59.12819092 -61.20849609 58.23876953 C-59.04657117 54.23374902 -55.73269292 51.16515216 -52.625 47.875 C-51.95210937 47.14667969 -51.27921875 46.41835937 -50.5859375 45.66796875 C-49.93109375 44.97058594 -49.27625 44.27320313 -48.6015625 43.5546875 C-48.00682129 42.92030762 -47.41208008 42.28592773 -46.79931641 41.63232422 C-44.96154379 39.96511286 -43.21593674 39.07710533 -41 38 C-40.32756763 36.66956514 -39.66191752 35.33569735 -39 34 C-37.22349678 32.18927842 -35.45313583 30.49392248 -33.5625 28.8125 C-33.02536377 28.32765137 -32.48822754 27.84280273 -31.93481445 27.34326172 C-27.73804181 23.58497627 -23.40722029 20.00984064 -19.01953125 16.4765625 C-15.24721056 13.38257632 -11.55845663 10.19887164 -7.875 7 C-6.87859497 6.1349585 -6.87859497 6.1349585 -5.86206055 5.25244141 C-2.86952339 2.69305027 -2.86952339 2.69305027 0 0 Z " fill="#000000" transform="translate(603,200)"/>
<path d="M0 0 C5.18024714 2.85551885 10.00480172 5.99654059 14.8125 9.4375 C15.54678223 9.95900635 16.28106445 10.4805127 17.03759766 11.01782227 C21.59481095 14.261031 26.12679119 17.53829705 30.65307617 20.82446289 C31.38631104 21.35676514 32.1195459 21.88906738 32.875 22.4375 C33.61790283 22.97689209 34.36080566 23.51628418 35.1262207 24.07202148 C41.30564175 28.5397688 47.58799377 32.84390122 53.89624023 37.12695312 C60.06429482 41.3276599 66.12315223 45.66323826 72.15795898 50.05249023 C79.39260711 55.30681406 86.71792593 60.42703993 94.05078125 65.54296875 C98.96262025 68.96990088 103.85862518 72.41894008 108.75 75.875 C109.48355713 76.39328369 110.21711426 76.91156738 110.97290039 77.44555664 C112.64883404 78.63004039 114.32445606 79.81496504 116 81 C115 83 115 83 112.125 85.375 C108.6710088 88.26984098 105.63945093 91.47269969 102.625 94.8125 C96.2283089 101.88920168 89.66645148 108.7174818 82.4140625 114.9296875 C80.45725303 116.60785743 78.51862476 118.30212929 76.5859375 120.0078125 C54.99667099 139 54.99667099 139 51 139 C49.70532227 137.32788086 49.70532227 137.32788086 48.25390625 135.02734375 C45.28725152 130.42781639 42.15846801 125.98633571 38.9375 121.5625 C37.79031967 119.98050132 36.64318556 118.39846912 35.49609375 116.81640625 C34.91585449 116.01734863 34.33561523 115.21829102 33.73779297 114.39501953 C30.985239 110.60146032 28.24294187 106.80051175 25.5 103 C24.4167202 101.49996134 23.33338676 99.99996141 22.25 98.5 C15.75 89.5 15.75 89.5 14.12524414 87.25024414 C13.04121584 85.7493445 11.95706858 84.24853078 10.87280273 82.74780273 C8.17412345 79.01226033 5.47748688 75.27527746 2.78515625 71.53515625 C-3.47644 62.8421854 -9.79337758 54.19340856 -16.16479492 45.58056641 C-19.78320272 40.68026425 -23.33354648 35.74796921 -26.765625 30.71484375 C-28.02638964 28.86641432 -28.02638964 28.86641432 -30 27 C-29.21238281 26.50113281 -28.42476562 26.00226562 -27.61328125 25.48828125 C-16.95611411 18.46337936 -7.81896387 10.12527696 0 0 Z " fill="#000000" transform="translate(883,602)"/>
<path d="M0 0 C3.97184053 1.37350635 6.72920828 3.17588246 9.9375 5.875 C10.8965625 6.679375 11.855625 7.48375 12.84375 8.3125 C13.89608005 9.2080435 14.94815377 10.10388828 16 11 C17.13533309 11.95843235 18.27075202 12.91676302 19.40625 13.875 C30.49857169 23.27281161 41.13585479 33.05431291 51.4375 43.3125 C52.59233887 44.46032959 52.59233887 44.46032959 53.77050781 45.63134766 C61.65668331 53.54001554 61.65668331 53.54001554 65 58 C64.8125 60.375 64.8125 60.375 64 62 C63.34 62 62.68 62 62 62 C61.67 62.66 61.34 63.32 61 64 C59.07303646 65.17792442 57.10612653 66.29064206 55.125 67.375 C49.17047726 70.6927647 43.37635799 74.21700355 37.625 77.875 C36.8105542 78.39271973 35.9961084 78.91043945 35.15698242 79.44384766 C33.53187479 80.47796303 31.90711289 81.51262193 30.28271484 82.54785156 C19.92185292 89.1389111 9.46089631 95.56946659 -1 102 C-18.10027577 112.51303359 -35.07728802 123.2033472 -52 134 C-55.34548616 130.75942456 -58.28794984 127.43924393 -61.125 123.75 C-66.52413918 117.05542977 -72.85842061 111.76105293 -80 107 C-71.59712454 95.51664067 -63.08163259 84.13254391 -54.41503906 72.84716797 C-49.81454512 66.84176128 -45.29663452 60.77584846 -40.828125 54.671875 C-34.38501657 45.87639068 -27.85295295 37.17217143 -21.13256836 28.58642578 C-17.16353466 23.51104709 -13.2445798 18.40164058 -9.375 13.25 C-8.64772705 12.28477417 -8.64772705 12.28477417 -7.90576172 11.30004883 C-5.14306122 7.60880381 -2.52196953 3.85991581 0 0 Z " fill="#000000" transform="translate(934,200)"/>
<path d="M0 0 C3.24702557 3.16796756 6.23013237 6.39567612 9.0625 9.9375 C12.63714769 14.35673999 16.28722365 18.69632775 20 23 C24.2899583 27.9774818 28.49081019 33.01348886 32.62109375 38.125 C34.45836289 40.34541065 36.32106531 42.52314174 38.22265625 44.6875 C39.05216797 45.63592773 39.05216797 45.63592773 39.8984375 46.60351562 C40.98981846 47.84733125 42.08729398 49.08583117 43.19140625 50.31835938 C47 54.66749573 47 54.66749573 47 58 C45.77015381 58.30437988 44.54030762 58.60875977 43.27319336 58.92236328 C31.67405129 61.80190372 20.10457543 64.77483131 8.5625 67.875 C7.71315887 68.1027713 6.86381775 68.3305426 5.98873901 68.56521606 C-22.64513571 76.25625063 -51.1429712 84.44639804 -79.640625 92.625 C-80.62970352 92.90859879 -81.61878204 93.19219757 -82.63783264 93.48439026 C-87.28820368 94.81782241 -91.93780405 96.15379128 -96.58569336 97.49584961 C-98.21725981 97.9647692 -99.84885011 98.43360578 -101.48046875 98.90234375 C-102.22045105 99.11717407 -102.96043335 99.33200439 -103.72283936 99.55334473 C-108.7731108 101 -108.7731108 101 -111 101 C-111.43570313 99.81664062 -111.87140625 98.63328125 -112.3203125 97.4140625 C-115.55789094 88.76863058 -118.86242883 80.7211199 -124 73 C-125.00388588 71.33567103 -126.00432329 69.66925303 -127 68 C-126.35450195 67.68772461 -125.70900391 67.37544922 -125.04394531 67.05371094 C-122.10841288 65.62763962 -119.17922416 64.18898137 -116.25 62.75 C-114.72632813 62.01330078 -114.72632813 62.01330078 -113.171875 61.26171875 C-112.1921875 60.77832031 -111.2125 60.29492188 -110.203125 59.796875 C-109.30239258 59.35698242 -108.40166016 58.91708984 -107.47363281 58.46386719 C-104.91197864 57.0991653 -104.91197864 57.0991653 -102.98730469 54.88769531 C-100.57818338 52.59932603 -99.22950784 52.5798928 -96 52 C-93.42454746 50.78111752 -90.93065683 49.52482892 -88.42578125 48.17578125 C-87.33997017 47.59995552 -87.33997017 47.59995552 -86.23222351 47.01249695 C-84.70178599 46.19926775 -83.17299294 45.38293721 -81.64575195 44.5637207 C-79.34105063 43.32781045 -77.03142865 42.10155619 -74.72070312 40.87695312 C-61.20209229 35.0717493 -61.20209229 35.0717493 -51 26 C-49.33626934 25.65230877 -47.6689646 25.32163031 -46 25 C-44.24968028 24.22224968 -42.52739161 23.37949835 -40.83203125 22.48828125 C-39.85556641 21.97716797 -38.87910156 21.46605469 -37.87304688 20.93945312 C-36.86306641 20.40255859 -35.85308594 19.86566406 -34.8125 19.3125 C-33.82185547 18.79494141 -32.83121094 18.27738281 -31.81054688 17.74414062 C-26.16890417 14.77349204 -20.6713352 11.63840156 -15.22583008 8.32348633 C-12.35788939 6.61819879 -9.44108107 5.14034039 -6.4375 3.6875 C-2.98694021 2.1870769 -2.98694021 2.1870769 0 0 Z " fill="#000000" transform="translate(1023,283)"/>
<path d="M0 0 C11.85084757 2.67599784 23.40113011 6.41505012 35 10 C59.13433264 17.44384236 83.32369292 24.55851189 107.67492676 31.25556946 C114.31148256 33.08183301 120.9373433 34.94534428 127.5625 36.8125 C137.6787483 39.65717845 147.82631158 42.36866462 158 45 C158 49.16989739 157.98469566 49.51568432 155.5078125 52.43359375 C154.97269043 53.07570801 154.43756836 53.71782227 153.88623047 54.37939453 C153.01442139 55.39815674 153.01442139 55.39815674 152.125 56.4375 C150.92049144 57.88035654 149.71738116 59.32438144 148.515625 60.76953125 C147.91685547 61.4857666 147.31808594 62.20200195 146.70117188 62.93994141 C144.35312831 65.78333859 142.11123783 68.69264297 139.875 71.625 C136.38833484 76.19451564 132.86892313 80.73456187 129.3125 85.25 C125.18950785 90.48549975 121.08266629 95.73294247 117 101 C111.85786374 100.41496653 107.78895537 97.98444925 103.3125 95.5625 C102.47235352 95.11366455 101.63220703 94.6648291 100.76660156 94.20239258 C88.43037962 87.58709934 76.24316127 80.708529 64.0625 73.8125 C46.85720415 64.07204284 29.58679146 54.45241902 12.1875 45.0625 C-1.61399898 37.60192615 -1.61399898 37.60192615 -7.375 34.375 C-8.43460938 33.78460937 -9.49421875 33.19421875 -10.5859375 32.5859375 C-13 31 -13 31 -15 28 C-14.56429687 27.41734375 -14.12859375 26.8346875 -13.6796875 26.234375 C-7.76028557 18.08558793 -3.03492461 9.6319673 0 0 Z " fill="#000000" transform="translate(910,554)"/>
<path d="M0 0 C0.3403125 0.94359375 0.680625 1.8871875 1.03125 2.859375 C4.02674868 10.88130788 7.34765538 17.58867948 12.4609375 24.51171875 C14 27 14 27 14 31 C13.25621094 31.35449219 12.51242187 31.70898438 11.74609375 32.07421875 C2.97531562 36.35087916 -5.5061002 41.0562874 -13.98266602 45.88745117 C-20.61689388 49.66486532 -27.2873808 53.36387216 -34 57 C-42.34946561 61.52798229 -50.63177737 66.16314687 -58.88916016 70.85668945 C-67.4661789 75.722096 -76.10405017 80.4729261 -84.74920654 85.21569824 C-93.00720021 89.74912551 -101.20701419 94.36016478 -109.25537109 99.25854492 C-113.79828528 102 -113.79828528 102 -116 102 C-117.72786833 99.99481947 -119.34028193 97.98102715 -120.9375 95.875 C-121.93603466 94.58060321 -122.93473716 93.28633588 -123.93359375 91.9921875 C-124.44390137 91.32670898 -124.95420898 90.66123047 -125.47998047 89.97558594 C-127.79630794 86.96502989 -130.14861571 83.98319435 -132.5 81 C-133.41422027 79.8360614 -134.32828211 78.67199835 -135.2421875 77.5078125 C-137.09795322 75.14556914 -138.95772844 72.78655786 -140.8203125 70.4296875 C-143.11210929 67.52841252 -145.39311341 64.61894942 -147.66699219 61.70361328 C-148.56503674 60.55589261 -149.4668137 59.41108379 -150.37207031 58.26904297 C-151.67454135 56.62428592 -152.96357622 54.96982141 -154.25 53.3125 C-154.99765625 52.35988281 -155.7453125 51.40726563 -156.515625 50.42578125 C-157.00546875 49.62527344 -157.4953125 48.82476563 -158 48 C-157.67 47.01 -157.34 46.02 -157 45 C-154.91918945 44.19140625 -154.91918945 44.19140625 -152.11328125 43.5625 C-151.05020752 43.31346924 -149.98713379 43.06443848 -148.8918457 42.80786133 C-147.71066162 42.54126709 -146.52947754 42.27467285 -145.3125 42 C-142.7274945 41.38496951 -140.1441271 40.76555789 -137.5625 40.13671875 C-136.87525345 39.96967941 -136.1880069 39.80264008 -135.47993469 39.63053894 C-127.19113898 37.59139477 -119.00344789 35.21003585 -110.8125 32.8125 C-110.02020996 32.58087158 -109.22791992 32.34924316 -108.41162109 32.1105957 C-104.29549808 30.9062302 -100.18063989 29.69761866 -96.06640625 28.48681641 C-90.9441751 26.98098448 -85.81616746 25.49545246 -80.6875 24.01171875 C-63.96980909 19.16805239 -47.28896953 14.22969957 -30.6875 9 C-29.9708316 8.77425293 -29.25416321 8.54850586 -28.51577759 8.31591797 C-20.76655072 5.87010796 -13.04180115 3.3695927 -5.36645508 0.69921875 C-3 0 -3 0 0 0 Z " fill="#000000" transform="translate(629,554)"/>
<path d="M0 0 C8.3223497 3.96645783 16.37479277 8.29675367 24.375 12.875 C33.72429391 18.21510498 43.17083577 23.34195215 52.6875 28.375 C53.36627197 28.73403412 54.04504395 29.09306824 54.74438477 29.46298218 C57.48941276 30.91450469 60.23471511 32.36550589 62.98049927 33.81559753 C69.79220291 37.41437298 76.58556961 41.04691538 83.375 44.6875 C84.50188232 45.29150635 85.62876465 45.8955127 86.78979492 46.51782227 C92.65734314 49.66478889 98.52149132 52.81801799 104.3828125 55.9765625 C104.98443207 56.30072647 105.58605164 56.62489044 106.2059021 56.95887756 C109.0810333 58.50823673 111.95566633 60.05850903 114.82958984 61.61010742 C115.8448877 62.15771729 116.86018555 62.70532715 117.90625 63.26953125 C118.79634766 63.75010986 119.68644531 64.23068848 120.60351562 64.72583008 C122.720436 65.85136058 124.84986783 66.93960526 127 68 C125.69537008 71.51007574 124.13681102 74.53427289 122.125 77.6875 C117.99974524 84.43883156 115.48396083 91.52248324 113 99 C100.69560915 95.55961369 88.39282398 92.11384315 76.09765625 88.640625 C49.47263912 81.12795681 22.79269922 73.89000325 -4 67 C-5.69726762 66.56315879 -7.39453323 66.12630979 -9.09179688 65.68945312 C-18.58436924 63.24668106 -18.58436924 63.24668106 -28.07983398 60.81518555 C-28.76716614 60.63932922 -29.45449829 60.4634729 -30.16265869 60.2822876 C-31.9945699 59.81370394 -33.82674188 59.34614009 -35.65893555 58.87866211 C-39.1221056 57.96788761 -42.56040539 56.99559297 -46 56 C-45.236875 55.113125 -44.47375 54.22625 -43.6875 53.3125 C-36.78178346 45.24766792 -29.89022227 37.18670104 -23.296875 28.86328125 C-20.21584826 25.0224775 -17.07489787 21.23229645 -13.9375 17.4375 C-9.19508623 11.69774111 -4.49781021 5.93508039 0 0 Z " fill="#000000" transform="translate(513,284)"/>
<path d="M0 0 C1.65 0 3.3 0 5 0 C5 0.33 5 0.66 5 1 C3.35 1 1.7 1 0 1 C0 0.67 0 0.34 0 0 Z " fill="#000000" transform="translate(787,286)"/>
<path d="M0 0 C0.33 0 0.66 0 1 0 C1 1.65 1 3.3 1 5 C0.67 5 0.34 5 0 5 C0 3.35 0 1.7 0 0 Z " fill="#000000" transform="translate(794,163)"/>
<path d="M0 0 C0.66 0 1.32 0 2 0 C2 0.66 2 1.32 2 2 C1.34 2 0.68 2 0 2 C0 1.34 0 0.68 0 0 Z " fill="#000000" transform="translate(793,776)"/>
<path d="M0 0 C0.66 0.66 1.32 1.32 2 2 C1.01 1.67 0.02 1.34 -1 1 C-0.67 0.67 -0.34 0.34 0 0 Z " fill="#000000" transform="translate(1042,581)"/>
<path d="M0 0 C4 1 4 1 4 1 Z " fill="#000000" transform="translate(808,448)"/>
<path d="M0 0 C0 3 0 3 0 3 Z " fill="#000000" transform="translate(1045,410)"/>
<path d="M0 0 C4 1 4 1 4 1 Z " fill="#000000" transform="translate(1065,342)"/>
<path d="M0 0 C3 1 3 1 3 1 Z " fill="#000000" transform="translate(997,681)"/>
<path d="M0 0 C3 1 3 1 3 1 Z " fill="#000000" transform="translate(576,568)"/>
<path d="M0 0 C3 1 3 1 3 1 Z " fill="#000000" transform="translate(946,563)"/>
<path d="M0 0 C0.99 0.495 0.99 0.495 2 1 C1.01 1.495 1.01 1.495 0 2 C0 1.34 0 0.68 0 0 Z " fill="#000000" transform="translate(1093,481)"/>
<path d="M0 0 C3 1 3 1 3 1 Z " fill="#000000" transform="translate(1106,468)"/>
<path d="" fill="#000000" transform="translate(0,0)"/>
<path d="M0 0 C0.66 0 1.32 0 2 0 C1.67 0.66 1.34 1.32 1 2 C0.67 1.34 0.34 0.68 0 0 Z " fill="#000000" transform="translate(1118,383)"/>
<path d="M0 0 C3 1 3 1 3 1 Z " fill="#000000" transform="translate(477,352)"/>
<path d="M0 0 C3 1 3 1 3 1 Z " fill="#000000" transform="translate(467,342)"/>
<path d="M0 0 C0.99 0.495 0.99 0.495 2 1 C1.01 1.495 1.01 1.495 0 2 C0 1.34 0 0.68 0 0 Z " fill="#000000" transform="translate(1070,336)"/>
<path d="M0 0 C3 1 3 1 3 1 Z " fill="#000000" transform="translate(492,305)"/>
<path d="M0 0 C2 1 2 1 2 1 Z " fill="#000000" transform="translate(948,1021)"/>
<path d="M0 0 C2 1 2 1 2 1 Z " fill="#000000" transform="translate(948,1013)"/>
<path d="" fill="#BFBFBF" transform="translate(0,0)"/>
<path d="M0 0 C2 1 2 1 2 1 Z " fill="#000000" transform="translate(948,997)"/>
<path d="M0 0 C2 1 2 1 2 1 Z " fill="#FFFFFF" transform="translate(1090,979)"/>
<path d="" fill="#000000" transform="translate(0,0)"/>
<path d="M0 0 C2 1 2 1 2 1 Z " fill="#000000" transform="translate(1090,931)"/>
<path d="" fill="#000000" transform="translate(0,0)"/>
<path d="" fill="#000000" transform="translate(0,0)"/>
<path d="M0 0 C2 1 2 1 2 1 Z " fill="#000000" transform="translate(1090,699)"/>
<path d="" fill="#000000" transform="translate(0,0)"/>
<path d="" fill="#000000" transform="translate(0,0)"/>
<path d="" fill="#000000" transform="translate(0,0)"/>
<path d="" fill="#000000" transform="translate(0,0)"/>
<path d="M0 0 C2 1 2 1 2 1 Z " fill="#000000" transform="translate(749,650)"/>
<path d="M0 0 C2 1 2 1 2 1 Z " fill="#000000" transform="translate(744,649)"/>
<path d="M0 0 C2 1 2 1 2 1 Z " fill="#000000" transform="translate(1044,635)"/>
<path d="" fill="#000000" transform="translate(0,0)"/>
<path d="" fill="#000000" transform="translate(0,0)"/>
<path d="" fill="#000000" transform="translate(0,0)"/>
<path d="M0 0 C2 1 2 1 2 1 Z " fill="#000000" transform="translate(1046,592)"/>
<path d="M0 0 C2 1 2 1 2 1 Z " fill="#000000" transform="translate(1069,589)"/>
<path d="M0 0 C2 1 2 1 2 1 Z " fill="#000000" transform="translate(474,587)"/>
<path d="M0 0 C2 1 2 1 2 1 Z " fill="#000000" transform="translate(514,586)"/>
<path d="M0 0 C2 1 2 1 2 1 Z " fill="#000000" transform="translate(966,569)"/>
<path d="M0 0 C2 1 2 1 2 1 Z " fill="#000000" transform="translate(1015,553)"/>
<path d="M0 0 C2 1 2 1 2 1 Z " fill="#000000" transform="translate(494,520)"/>
<path d="" fill="#000000" transform="translate(0,0)"/>
<path d="M0 0 C2 1 2 1 2 1 Z " fill="#000000" transform="translate(1090,481)"/>
<path d="" fill="#000000" transform="translate(0,0)"/>
<path d="" fill="#000000" transform="translate(0,0)"/>
<path d="M0 0 C2 1 2 1 2 1 Z " fill="#000000" transform="translate(468,435)"/>
<path d="" fill="#000000" transform="translate(0,0)"/>
<path d="M0 0 C2 1 2 1 2 1 Z " fill="#000000" transform="translate(1044,414)"/>
<path d="" fill="#000000" transform="translate(0,0)"/>
<path d="M0 0 C2 1 2 1 2 1 Z " fill="#000000" transform="translate(932,379)"/>
<path d="" fill="#000000" transform="translate(0,0)"/>
<path d="M0 0 C2 1 2 1 2 1 Z " fill="#000000" transform="translate(997,363)"/>
<path d="M0 0 C2 1 2 1 2 1 Z " fill="#000000" transform="translate(1021,362)"/>
<path d="" fill="#000000" transform="translate(0,0)"/>
<path d="M0 0 C2 1 2 1 2 1 Z " fill="#000000" transform="translate(518,362)"/>
<path d="M0 0 C2 1 2 1 2 1 Z " fill="#000000" transform="translate(1023,361)"/>
<path d="M0 0 C2 1 2 1 2 1 Z " fill="#000000" transform="translate(510,360)"/>
<path d="" fill="#000000" transform="translate(0,0)"/>
<path d="" fill="#000000" transform="translate(0,0)"/>
<path d="" fill="#000000" transform="translate(0,0)"/>
<path d="M0 0 C2 1 2 1 2 1 Z " fill="#000000" transform="translate(1043,348)"/>
<path d="M0 0 C2 1 2 1 2 1 Z " fill="#000000" transform="translate(678,314)"/>
<path d="" fill="#000000" transform="translate(0,0)"/>
<path d="M0 0 C2 1 2 1 2 1 Z " fill="#000000" transform="translate(948,293)"/>
<path d="M0 0 C2 1 2 1 2 1 Z " fill="#000000" transform="translate(722,291)"/>
<path d="M0 0 C2 1 2 1 2 1 Z " fill="#000000" transform="translate(797,287)"/>
<path d="M0 0 C2 1 2 1 2 1 Z " fill="#000000" transform="translate(751,286)"/>
<path d="" fill="#000000" transform="translate(0,0)"/>
<path d="M0 0 C2 1 2 1 2 1 Z " fill="#000000" transform="translate(894,250)"/>
<path d="" fill="#000000" transform="translate(0,0)"/>
<path d="" fill="#000000" transform="translate(0,0)"/>
<path d="" fill="#000000" transform="translate(0,0)"/>
<path d="M0 0 C2 1 2 1 2 1 Z " fill="#000000" transform="translate(570,226)"/>
<path d="M0 0 C2 1 2 1 2 1 Z " fill="#000000" transform="translate(636,185)"/>
<path d="M0 0 C2 1 2 1 2 1 Z " fill="#000000" transform="translate(838,162)"/>
<path d="M0 0 C2 1 2 1 2 1 Z " fill="#000000" transform="translate(713,160)"/>
<path d="M0 0 C2 1 2 1 2 1 Z " fill="#000000" transform="translate(1090,59)"/>
<path d="M0 0 C2 1 2 1 2 1 Z " fill="#404040" transform="translate(948,37)"/>
<path d="" fill="#FFFFFF" transform="translate(0,0)"/>
<path d="" fill="#AAAAAA" transform="translate(0,0)"/>
<path d="" fill="#FFFFFF" transform="translate(0,0)"/>
<path d="" fill="#FFFFFF" transform="translate(0,0)"/>
<path d="" fill="#FFFFFF" transform="translate(0,0)"/>
<path d="" fill="#FFFFFF" transform="translate(0,0)"/>
<path d="" fill="#FFFFFF" transform="translate(0,0)"/>
<path d="" fill="#000000" transform="translate(0,0)"/>
<path d="" fill="#FFFFFF" transform="translate(0,0)"/>
<path d="" fill="#FFFFFF" transform="translate(0,0)"/>
<path d="" fill="#FFFFFF" transform="translate(0,0)"/>
<path d="" fill="#FFFFFF" transform="translate(0,0)"/>
<path d="" fill="#FFFFFF" transform="translate(0,0)"/>
<path d="" fill="#FFFFFF" transform="translate(0,0)"/>
<path d="" fill="#FFFFFF" transform="translate(0,0)"/>
<path d="" fill="#000000" transform="translate(0,0)"/>
<path d="" fill="#000000" transform="translate(0,0)"/>
<path d="" fill="#000000" transform="translate(0,0)"/>
<path d="" fill="#FFFFFF" transform="translate(0,0)"/>
<path d="" fill="#FFFFFF" transform="translate(0,0)"/>
<path d="" fill="#FFFFFF" transform="translate(0,0)"/>
<path d="" fill="#FFFFFF" transform="translate(0,0)"/>
<path d="" fill="#000000" transform="translate(0,0)"/>
<path d="" fill="#000000" transform="translate(0,0)"/>
<path d="" fill="#808080" transform="translate(0,0)"/>
<path d="" fill="#FFFFFF" transform="translate(0,0)"/>
<path d="" fill="#FFFFFF" transform="translate(0,0)"/>
<path d="" fill="#FFFFFF" transform="translate(0,0)"/>
<path d="" fill="#000000" transform="translate(0,0)"/>
<path d="" fill="#FFFFFF" transform="translate(0,0)"/>
<path d="" fill="#FFFFFF" transform="translate(0,0)"/>
<path d="" fill="#000000" transform="translate(0,0)"/>
<path d="" fill="#000000" transform="translate(0,0)"/>
<path d="" fill="#FFFFFF" transform="translate(0,0)"/>
<path d="" fill="#FFFFFF" transform="translate(0,0)"/>
<path d="" fill="#808080" transform="translate(0,0)"/>
<path d="" fill="#000000" transform="translate(0,0)"/>
<path d="" fill="#000000" transform="translate(0,0)"/>
<path d="" fill="#FFFFFF" transform="translate(0,0)"/>
<path d="" fill="#808080" transform="translate(0,0)"/>
<path d="" fill="#000000" transform="translate(0,0)"/>
<path d="" fill="#808080" transform="translate(0,0)"/>
<path d="" fill="#000000" transform="translate(0,0)"/>
<path d="" fill="#FFFFFF" transform="translate(0,0)"/>
<path d="" fill="#000000" transform="translate(0,0)"/>
<path d="" fill="#FFFFFF" transform="translate(0,0)"/>
<path d="" fill="#FFFFFF" transform="translate(0,0)"/>
<path d="" fill="#808080" transform="translate(0,0)"/>
<path d="" fill="#000000" transform="translate(0,0)"/>
<path d="" fill="#808080" transform="translate(0,0)"/>
<path d="" fill="#000000" transform="translate(0,0)"/>
<path d="" fill="#808080" transform="translate(0,0)"/>
<path d="" fill="#000000" transform="translate(0,0)"/>
<path d="" fill="#00FFFF" transform="translate(0,0)"/>
<path d="" fill="#000000" transform="translate(0,0)"/>
<path d="" fill="#000000" transform="translate(0,0)"/>
<path d="" fill="#FFFFFF" transform="translate(0,0)"/>
<path d="" fill="#FFFFFF" transform="translate(0,0)"/>
<path d="" fill="#000000" transform="translate(0,0)"/>
<path d="" fill="#808080" transform="translate(0,0)"/>
<path d="" fill="#FFFFFF" transform="translate(0,0)"/>
<path d="" fill="#808080" transform="translate(0,0)"/>
<path d="" fill="#FFFFFF" transform="translate(0,0)"/>
<path d="" fill="#000000" transform="translate(0,0)"/>
<path d="" fill="#000000" transform="translate(0,0)"/>
<path d="" fill="#FFFFFF" transform="translate(0,0)"/>
<path d="" fill="#FFFFFF" transform="translate(0,0)"/>
<path d="" fill="#000000" transform="translate(0,0)"/>
<path d="" fill="#000000" transform="translate(0,0)"/>
<path d="" fill="#555555" transform="translate(0,0)"/>
<path d="" fill="#FFFFFF" transform="translate(0,0)"/>
<path d="" fill="#FFFFFF" transform="translate(0,0)"/>
<path d="" fill="#000000" transform="translate(0,0)"/>
<path d="" fill="#000000" transform="translate(0,0)"/>
<path d="" fill="#FFFFFF" transform="translate(0,0)"/>
<path d="" fill="#FFFFFF" transform="translate(0,0)"/>
<path d="" fill="#000000" transform="translate(0,0)"/>
<path d="" fill="#555555" transform="translate(0,0)"/>
<path d="" fill="#000000" transform="translate(0,0)"/>
<path d="" fill="#FFFFFF" transform="translate(0,0)"/>
<path d="" fill="#FFFFFF" transform="translate(0,0)"/>
<path d="" fill="#000000" transform="translate(0,0)"/>
<path d="" fill="#000000" transform="translate(0,0)"/>
<path d="" fill="#000000" transform="translate(0,0)"/>
<path d="" fill="#808080" transform="translate(0,0)"/>
<path d="" fill="#000000" transform="translate(0,0)"/>
<path d="" fill="#000000" transform="translate(0,0)"/>
<path d="" fill="#000000" transform="translate(0,0)"/>
<path d="" fill="#000000" transform="translate(0,0)"/>
<path d="" fill="#000000" transform="translate(0,0)"/>
<path d="" fill="#000000" transform="translate(0,0)"/>
<path d="" fill="#FFFFFF" transform="translate(0,0)"/>
<path d="" fill="#FFFFFF" transform="translate(0,0)"/>
<path d="" fill="#000000" transform="translate(0,0)"/>
<path d="" fill="#555555" transform="translate(0,0)"/>
<path d="" fill="#000000" transform="translate(0,0)"/>
<path d="" fill="#000000" transform="translate(0,0)"/>
<path d="" fill="#000000" transform="translate(0,0)"/>
<path d="" fill="#000000" transform="translate(0,0)"/>
<path d="" fill="#000000" transform="translate(0,0)"/>
<path d="" fill="#808080" transform="translate(0,0)"/>
<path d="" fill="#000000" transform="translate(0,0)"/>
<path d="" fill="#000000" transform="translate(0,0)"/>
<path d="" fill="#000000" transform="translate(0,0)"/>
<path d="" fill="#000000" transform="translate(0,0)"/>
<path d="" fill="#000000" transform="translate(0,0)"/>
<path d="" fill="#FF0000" transform="translate(0,0)"/>
<path d="" fill="#000000" transform="translate(0,0)"/>
<path d="" fill="#000000" transform="translate(0,0)"/>
<path d="" fill="#000000" transform="translate(0,0)"/>
<path d="" fill="#000000" transform="translate(0,0)"/>
<path d="" fill="#808080" transform="translate(0,0)"/>
<path d="" fill="#000000" transform="translate(0,0)"/>
<path d="" fill="#000000" transform="translate(0,0)"/>
<path d="" fill="#000000" transform="translate(0,0)"/>
<path d="" fill="#000000" transform="translate(0,0)"/>
<path d="" fill="#000000" transform="translate(0,0)"/>
<path d="" fill="#FFFFFF" transform="translate(0,0)"/>
<path d="" fill="#FFFFFF" transform="translate(0,0)"/>
<path d="" fill="#000000" transform="translate(0,0)"/>
<path d="" fill="#000000" transform="translate(0,0)"/>
<path d="" fill="#808080" transform="translate(0,0)"/>
<path d="" fill="#000000" transform="translate(0,0)"/>
<path d="" fill="#000000" transform="translate(0,0)"/>
<path d="" fill="#000000" transform="translate(0,0)"/>
<path d="" fill="#FFFFFF" transform="translate(0,0)"/>
<path d="" fill="#000000" transform="translate(0,0)"/>
<path d="" fill="#FFFFFF" transform="translate(0,0)"/>
<path d="" fill="#000000" transform="translate(0,0)"/>
<path d="" fill="#000000" transform="translate(0,0)"/>
<path d="" fill="#000000" transform="translate(0,0)"/>
<path d="" fill="#000000" transform="translate(0,0)"/>
<path d="" fill="#000000" transform="translate(0,0)"/>
<path d="" fill="#000000" transform="translate(0,0)"/>
<path d="" fill="#000000" transform="translate(0,0)"/>
<path d="" fill="#808080" transform="translate(0,0)"/>
<path d="" fill="#000000" transform="translate(0,0)"/>
<path d="" fill="#000000" transform="translate(0,0)"/>
<path d="" fill="#000000" transform="translate(0,0)"/>
<path d="" fill="#000000" transform="translate(0,0)"/>
<path d="" fill="#000000" transform="translate(0,0)"/>
<path d="" fill="#FFFFFF" transform="translate(0,0)"/>
<path d="" fill="#000000" transform="translate(0,0)"/>
<path d="" fill="#000000" transform="translate(0,0)"/>
<path d="" fill="#000000" transform="translate(0,0)"/>
<path d="" fill="#000000" transform="translate(0,0)"/>
<path d="" fill="#808080" transform="translate(0,0)"/>
<path d="" fill="#000000" transform="translate(0,0)"/>
<path d="" fill="#000000" transform="translate(0,0)"/>
<path d="" fill="#000000" transform="translate(0,0)"/>
<path d="" fill="#FFFFFF" transform="translate(0,0)"/>
<path d="" fill="#000000" transform="translate(0,0)"/>
<path d="" fill="#000080" transform="translate(0,0)"/>
<path d="" fill="#000000" transform="translate(0,0)"/>
<path d="" fill="#FFFFFF" transform="translate(0,0)"/>
<path d="" fill="#000000" transform="translate(0,0)"/>
<path d="" fill="#000000" transform="translate(0,0)"/>
<path d="" fill="#000000" transform="translate(0,0)"/>
<path d="" fill="#555555" transform="translate(0,0)"/>
<path d="" fill="#000000" transform="translate(0,0)"/>
<path d="" fill="#000000" transform="translate(0,0)"/>
<path d="" fill="#000000" transform="translate(0,0)"/>
<path d="" fill="#000000" transform="translate(0,0)"/>
<path d="" fill="#000000" transform="translate(0,0)"/>
<path d="" fill="#000000" transform="translate(0,0)"/>
<path d="" fill="#000000" transform="translate(0,0)"/>
<path d="" fill="#FFFFFF" transform="translate(0,0)"/>
<path d="" fill="#FFFFFF" transform="translate(0,0)"/>
<path d="" fill="#000000" transform="translate(0,0)"/>
<path d="" fill="#000000" transform="translate(0,0)"/>
<path d="" fill="#000000" transform="translate(0,0)"/>
<path d="" fill="#000000" transform="translate(0,0)"/>
<path d="" fill="#000000" transform="translate(0,0)"/>
<path d="" fill="#000000" transform="translate(0,0)"/>
<path d="" fill="#000000" transform="translate(0,0)"/>
<path d="" fill="#000000" transform="translate(0,0)"/>
<path d="" fill="#000000" transform="translate(0,0)"/>
<path d="" fill="#000000" transform="translate(0,0)"/>
<path d="" fill="#000000" transform="translate(0,0)"/>
<path d="" fill="#000000" transform="translate(0,0)"/>
<path d="" fill="#000000" transform="translate(0,0)"/>
<path d="" fill="#000000" transform="translate(0,0)"/>
<path d="" fill="#000000" transform="translate(0,0)"/>
<path d="" fill="#000000" transform="translate(0,0)"/>
<path d="" fill="#000000" transform="translate(0,0)"/>
<path d="" fill="#000000" transform="translate(0,0)"/>
<path d="" fill="#000000" transform="translate(0,0)"/>
<path d="" fill="#000000" transform="translate(0,0)"/>
<path d="" fill="#000000" transform="translate(0,0)"/>
<path d="" fill="#000000" transform="translate(0,0)"/>
<path d="" fill="#000000" transform="translate(0,0)"/>
<path d="" fill="#FFFFFF" transform="translate(0,0)"/>
<path d="" fill="#808080" transform="translate(0,0)"/>
<path d="" fill="#000000" transform="translate(0,0)"/>
<path d="" fill="#000000" transform="translate(0,0)"/>
<path d="" fill="#000000" transform="translate(0,0)"/>
<path d="" fill="#000000" transform="translate(0,0)"/>
<path d="" fill="#000000" transform="translate(0,0)"/>
<path d="" fill="#000000" transform="translate(0,0)"/>
<path d="" fill="#000000" transform="translate(0,0)"/>
<path d="" fill="#000000" transform="translate(0,0)"/>
<path d="" fill="#000000" transform="translate(0,0)"/>
<path d="" fill="#000000" transform="translate(0,0)"/>
<path d="" fill="#FFFFFF" transform="translate(0,0)"/>
<path d="" fill="#000000" transform="translate(0,0)"/>
<path d="" fill="#000000" transform="translate(0,0)"/>
<path d="" fill="#000000" transform="translate(0,0)"/>
<path d="" fill="#FFFFFF" transform="translate(0,0)"/>
<path d="" fill="#000000" transform="translate(0,0)"/>
<path d="" fill="#000000" transform="translate(0,0)"/>
<path d="" fill="#000000" transform="translate(0,0)"/>
<path d="" fill="#000000" transform="translate(0,0)"/>
<path d="" fill="#FFFF00" transform="translate(0,0)"/>
<path d="" fill="#FFFFFF" transform="translate(0,0)"/>
<path d="" fill="#000000" transform="translate(0,0)"/>
<path d="" fill="#000000" transform="translate(0,0)"/>
<path d="" fill="#000000" transform="translate(0,0)"/>
<path d="" fill="#000000" transform="translate(0,0)"/>
<path d="" fill="#000000" transform="translate(0,0)"/>
<path d="" fill="#000000" transform="translate(0,0)"/>
<path d="" fill="#FFFFFF" transform="translate(0,0)"/>
<path d="" fill="#000000" transform="translate(0,0)"/>
<path d="" fill="#000000" transform="translate(0,0)"/>
<path d="" fill="#000000" transform="translate(0,0)"/>
<path d="" fill="#000000" transform="translate(0,0)"/>
<path d="" fill="#000000" transform="translate(0,0)"/>
<path d="" fill="#000000" transform="translate(0,0)"/>
<path d="" fill="#000000" transform="translate(0,0)"/>
<path d="" fill="#000000" transform="translate(0,0)"/>
<path d="" fill="#000000" transform="translate(0,0)"/>
<path d="" fill="#FFFFFF" transform="translate(0,0)"/>
<path d="" fill="#000000" transform="translate(0,0)"/>
<path d="" fill="#000000" transform="translate(0,0)"/>
<path d="" fill="#000000" transform="translate(0,0)"/>
<path d="" fill="#000000" transform="translate(0,0)"/>
<path d="" fill="#000000" transform="translate(0,0)"/>
<path d="" fill="#FFFFFF" transform="translate(0,0)"/>
<path d="" fill="#000000" transform="translate(0,0)"/>
<path d="" fill="#FFFFFF" transform="translate(0,0)"/>
<path d="" fill="#000000" transform="translate(0,0)"/>
<path d="" fill="#000000" transform="translate(0,0)"/>
<path d="" fill="#000000" transform="translate(0,0)"/>
<path d="" fill="#000000" transform="translate(0,0)"/>
<path d="" fill="#000000" transform="translate(0,0)"/>
<path d="" fill="#000000" transform="translate(0,0)"/>
<path d="" fill="#000000" transform="translate(0,0)"/>
<path d="" fill="#FFFFFF" transform="translate(0,0)"/>
<path d="" fill="#000000" transform="translate(0,0)"/>
<path d="" fill="#000000" transform="translate(0,0)"/>
<path d="" fill="#FFFFFF" transform="translate(0,0)"/>
<path d="" fill="#000000" transform="translate(0,0)"/>
<path d="" fill="#000000" transform="translate(0,0)"/>
<path d="" fill="#000000" transform="translate(0,0)"/>
<path d="" fill="#000000" transform="translate(0,0)"/>
<path d="" fill="#000000" transform="translate(0,0)"/>
<path d="" fill="#000000" transform="translate(0,0)"/>
<path d="" fill="#FFFFFF" transform="translate(0,0)"/>
<path d="" fill="#FFFFFF" transform="translate(0,0)"/>
<path d="" fill="#000000" transform="translate(0,0)"/>
<path d="" fill="#000000" transform="translate(0,0)"/>
<path d="" fill="#000000" transform="translate(0,0)"/>
<path d="" fill="#000000" transform="translate(0,0)"/>
<path d="" fill="#000000" transform="translate(0,0)"/>
<path d="" fill="#000000" transform="translate(0,0)"/>
<path d="" fill="#FFFFFF" transform="translate(0,0)"/>
<path d="" fill="#000000" transform="translate(0,0)"/>
<path d="" fill="#000000" transform="translate(0,0)"/>
<path d="" fill="#000000" transform="translate(0,0)"/>
<path d="" fill="#000000" transform="translate(0,0)"/>
<path d="" fill="#000000" transform="translate(0,0)"/>
<path d="" fill="#000000" transform="translate(0,0)"/>
<path d="" fill="#000000" transform="translate(0,0)"/>
<path d="" fill="#000000" transform="translate(0,0)"/>
<path d="" fill="#000000" transform="translate(0,0)"/>
<path d="" fill="#000000" transform="translate(0,0)"/>
<path d="" fill="#000000" transform="translate(0,0)"/>
<path d="" fill="#000000" transform="translate(0,0)"/>
<path d="" fill="#000000" transform="translate(0,0)"/>
<path d="" fill="#000000" transform="translate(0,0)"/>
<path d="" fill="#000000" transform="translate(0,0)"/>
<path d="" fill="#000000" transform="translate(0,0)"/>
<path d="" fill="#000000" transform="translate(0,0)"/>
<path d="" fill="#000000" transform="translate(0,0)"/>
<path d="" fill="#000000" transform="translate(0,0)"/>
<path d="" fill="#000000" transform="translate(0,0)"/>
<path d="" fill="#000000" transform="translate(0,0)"/>
<path d="" fill="#000000" transform="translate(0,0)"/>
<path d="" fill="#000000" transform="translate(0,0)"/>
<path d="" fill="#000000" transform="translate(0,0)"/>
<path d="" fill="#000000" transform="translate(0,0)"/>
<path d="" fill="#FFFFFF" transform="translate(0,0)"/>
<path d="" fill="#000000" transform="translate(0,0)"/>
<path d="" fill="#000000" transform="translate(0,0)"/>
<path d="" fill="#FFFFFF" transform="translate(0,0)"/>
<path d="" fill="#000000" transform="translate(0,0)"/>
<path d="" fill="#000000" transform="translate(0,0)"/>
<path d="" fill="#FFFFFF" transform="translate(0,0)"/>
<path d="" fill="#000000" transform="translate(0,0)"/>
<path d="" fill="#000000" transform="translate(0,0)"/>
<path d="" fill="#000000" transform="translate(0,0)"/>
<path d="" fill="#000000" transform="translate(0,0)"/>
<path d="" fill="#000000" transform="translate(0,0)"/>
<path d="" fill="#000000" transform="translate(0,0)"/>
<path d="" fill="#000000" transform="translate(0,0)"/>
<path d="" fill="#000000" transform="translate(0,0)"/>
<path d="" fill="#000000" transform="translate(0,0)"/>
<path d="" fill="#000000" transform="translate(0,0)"/>
<path d="" fill="#000000" transform="translate(0,0)"/>
<path d="" fill="#000000" transform="translate(0,0)"/>
<path d="" fill="#000000" transform="translate(0,0)"/>
<path d="" fill="#000000" transform="translate(0,0)"/>
<path d="" fill="#000000" transform="translate(0,0)"/>
<path d="" fill="#000000" transform="translate(0,0)"/>
<path d="" fill="#000000" transform="translate(0,0)"/>
<path d="" fill="#000000" transform="translate(0,0)"/>
<path d="" fill="#000000" transform="translate(0,0)"/>
<path d="" fill="#000000" transform="translate(0,0)"/>
<path d="" fill="#000000" transform="translate(0,0)"/>
<path d="" fill="#000000" transform="translate(0,0)"/>
<path d="" fill="#000000" transform="translate(0,0)"/>
<path d="" fill="#000000" transform="translate(0,0)"/>
<path d="" fill="#000000" transform="translate(0,0)"/>
<path d="" fill="#000000" transform="translate(0,0)"/>
<path d="" fill="#000000" transform="translate(0,0)"/>
<path d="" fill="#FFFFFF" transform="translate(0,0)"/>
<path d="" fill="#000000" transform="translate(0,0)"/>
<path d="" fill="#000000" transform="translate(0,0)"/>
<path d="" fill="#000000" transform="translate(0,0)"/>
<path d="" fill="#000000" transform="translate(0,0)"/>
<path d="" fill="#000000" transform="translate(0,0)"/>
<path d="" fill="#000000" transform="translate(0,0)"/>
<path d="" fill="#000000" transform="translate(0,0)"/>
<path d="" fill="#FFFFFF" transform="translate(0,0)"/>
<path d="" fill="#000000" transform="translate(0,0)"/>
<path d="" fill="#000000" transform="translate(0,0)"/>
<path d="" fill="#000000" transform="translate(0,0)"/>
<path d="" fill="#000000" transform="translate(0,0)"/>
<path d="" fill="#000000" transform="translate(0,0)"/>
<path d="" fill="#000000" transform="translate(0,0)"/>
<path d="" fill="#000000" transform="translate(0,0)"/>
<path d="" fill="#FFFFFF" transform="translate(0,0)"/>
<path d="" fill="#FFFFFF" transform="translate(0,0)"/>
<path d="" fill="#000000" transform="translate(0,0)"/>
<path d="" fill="#000000" transform="translate(0,0)"/>
<path d="" fill="#000000" transform="translate(0,0)"/>
<path d="" fill="#000000" transform="translate(0,0)"/>
<path d="" fill="#000000" transform="translate(0,0)"/>
<path d="" fill="#000000" transform="translate(0,0)"/>
<path d="" fill="#000000" transform="translate(0,0)"/>
<path d="" fill="#000000" transform="translate(0,0)"/>
<path d="" fill="#000000" transform="translate(0,0)"/>
<path d="" fill="#000000" transform="translate(0,0)"/>
<path d="" fill="#000000" transform="translate(0,0)"/>
<path d="" fill="#000000" transform="translate(0,0)"/>
<path d="" fill="#000000" transform="translate(0,0)"/>
<path d="" fill="#000000" transform="translate(0,0)"/>
<path d="" fill="#000000" transform="translate(0,0)"/>
<path d="" fill="#000000" transform="translate(0,0)"/>
<path d="" fill="#FFFFFF" transform="translate(0,0)"/>
<path d="" fill="#000000" transform="translate(0,0)"/>
<path d="" fill="#000000" transform="translate(0,0)"/>
<path d="" fill="#000000" transform="translate(0,0)"/>
<path d="" fill="#000000" transform="translate(0,0)"/>
<path d="" fill="#000000" transform="translate(0,0)"/>
<path d="" fill="#000000" transform="translate(0,0)"/>
<path d="" fill="#000000" transform="translate(0,0)"/>
<path d="" fill="#000000" transform="translate(0,0)"/>
<path d="" fill="#000000" transform="translate(0,0)"/>
<path d="" fill="#000000" transform="translate(0,0)"/>
<path d="" fill="#000000" transform="translate(0,0)"/>
<path d="" fill="#000000" transform="translate(0,0)"/>
<path d="" fill="#000000" transform="translate(0,0)"/>
<path d="" fill="#000000" transform="translate(0,0)"/>
<path d="" fill="#000000" transform="translate(0,0)"/>
<path d="" fill="#000000" transform="translate(0,0)"/>
<path d="" fill="#000000" transform="translate(0,0)"/>
<path d="" fill="#000000" transform="translate(0,0)"/>
<path d="" fill="#000000" transform="translate(0,0)"/>
<path d="" fill="#000000" transform="translate(0,0)"/>
<path d="" fill="#000000" transform="translate(0,0)"/>
<path d="" fill="#000000" transform="translate(0,0)"/>
<path d="" fill="#000000" transform="translate(0,0)"/>
<path d="" fill="#000000" transform="translate(0,0)"/>
<path d="" fill="#000000" transform="translate(0,0)"/>
<path d="" fill="#000000" transform="translate(0,0)"/>
<path d="" fill="#000000" transform="translate(0,0)"/>
<path d="" fill="#000000" transform="translate(0,0)"/>
<path d="" fill="#000000" transform="translate(0,0)"/>
<path d="" fill="#000000" transform="translate(0,0)"/>
<path d="" fill="#000000" transform="translate(0,0)"/>
<path d="" fill="#000000" transform="translate(0,0)"/>
<path d="" fill="#000000" transform="translate(0,0)"/>
<path d="" fill="#000000" transform="translate(0,0)"/>
<path d="" fill="#000000" transform="translate(0,0)"/>
<path d="" fill="#000000" transform="translate(0,0)"/>
<path d="" fill="#000000" transform="translate(0,0)"/>
<path d="" fill="#000000" transform="translate(0,0)"/>
<path d="" fill="#000000" transform="translate(0,0)"/>
<path d="" fill="#000000" transform="translate(0,0)"/>
<path d="" fill="#000000" transform="translate(0,0)"/>
<path d="" fill="#000000" transform="translate(0,0)"/>
<path d="" fill="#000000" transform="translate(0,0)"/>
<path d="" fill="#000000" transform="translate(0,0)"/>
<path d="" fill="#000000" transform="translate(0,0)"/>
<path d="" fill="#000000" transform="translate(0,0)"/>
<path d="" fill="#000000" transform="translate(0,0)"/>
<path d="" fill="#000000" transform="translate(0,0)"/>
<path d="" fill="#000000" transform="translate(0,0)"/>
<path d="" fill="#000000" transform="translate(0,0)"/>
<path d="" fill="#000000" transform="translate(0,0)"/>
<path d="" fill="#000000" transform="translate(0,0)"/>
<path d="" fill="#000000" transform="translate(0,0)"/>
<path d="" fill="#000000" transform="translate(0,0)"/>
<path d="" fill="#000000" transform="translate(0,0)"/>
<path d="" fill="#000000" transform="translate(0,0)"/>
<path d="" fill="#000000" transform="translate(0,0)"/>
<path d="" fill="#000000" transform="translate(0,0)"/>
<path d="" fill="#000000" transform="translate(0,0)"/>
<path d="" fill="#000000" transform="translate(0,0)"/>
<path d="" fill="#000000" transform="translate(0,0)"/>
<path d="" fill="#000000" transform="translate(0,0)"/>
<path d="" fill="#000000" transform="translate(0,0)"/>
<path d="" fill="#000000" transform="translate(0,0)"/>
<path d="" fill="#000000" transform="translate(0,0)"/>
<path d="" fill="#000000" transform="translate(0,0)"/>
<path d="" fill="#000000" transform="translate(0,0)"/>
<path d="" fill="#000000" transform="translate(0,0)"/>
<path d="" fill="#000000" transform="translate(0,0)"/>
<path d="" fill="#000000" transform="translate(0,0)"/>
<path d="" fill="#000000" transform="translate(0,0)"/>
<path d="" fill="#000000" transform="translate(0,0)"/>
<path d="" fill="#000000" transform="translate(0,0)"/>
<path d="" fill="#000000" transform="translate(0,0)"/>
<path d="" fill="#000000" transform="translate(0,0)"/>
<path d="" fill="#000000" transform="translate(0,0)"/>
<path d="" fill="#000000" transform="translate(0,0)"/>
<path d="" fill="#000000" transform="translate(0,0)"/>
<path d="" fill="#000000" transform="translate(0,0)"/>
<path d="" fill="#000000" transform="translate(0,0)"/>
<path d="" fill="#000000" transform="translate(0,0)"/>
<path d="" fill="#000000" transform="translate(0,0)"/>
<path d="" fill="#000000" transform="translate(0,0)"/>
<path d="" fill="#000000" transform="translate(0,0)"/>
<path d="" fill="#000000" transform="translate(0,0)"/>
<path d="" fill="#000000" transform="translate(0,0)"/>
<path d="" fill="#FFFFFF" transform="translate(0,0)"/>
<path d="" fill="#000000" transform="translate(0,0)"/>
<path d="" fill="#000000" transform="translate(0,0)"/>
<path d="" fill="#000000" transform="translate(0,0)"/>
<path d="" fill="#000000" transform="translate(0,0)"/>
<path d="" fill="#000000" transform="translate(0,0)"/>
<path d="" fill="#000000" transform="translate(0,0)"/>
<path d="" fill="#000000" transform="translate(0,0)"/>
<path d="" fill="#000000" transform="translate(0,0)"/>
<path d="" fill="#000000" transform="translate(0,0)"/>
<path d="" fill="#000000" transform="translate(0,0)"/>
<path d="" fill="#000000" transform="translate(0,0)"/>
<path d="" fill="#000000" transform="translate(0,0)"/>
<path d="" fill="#000000" transform="translate(0,0)"/>
<path d="" fill="#000000" transform="translate(0,0)"/>
<path d="" fill="#000000" transform="translate(0,0)"/>
<path d="" fill="#000000" transform="translate(0,0)"/>
<path d="" fill="#000000" transform="translate(0,0)"/>
<path d="" fill="#000000" transform="translate(0,0)"/>
<path d="" fill="#000000" transform="translate(0,0)"/>
<path d="" fill="#000000" transform="translate(0,0)"/>
<path d="" fill="#000000" transform="translate(0,0)"/>
<path d="" fill="#000000" transform="translate(0,0)"/>
<path d="" fill="#000000" transform="translate(0,0)"/>
<path d="" fill="#000000" transform="translate(0,0)"/>
<path d="" fill="#000000" transform="translate(0,0)"/>
<path d="" fill="#000000" transform="translate(0,0)"/>
<path d="" fill="#000000" transform="translate(0,0)"/>
<path d="" fill="#000000" transform="translate(0,0)"/>
<path d="" fill="#000000" transform="translate(0,0)"/>
<path d="" fill="#000000" transform="translate(0,0)"/>
<path d="" fill="#000000" transform="translate(0,0)"/>
<path d="" fill="#000000" transform="translate(0,0)"/>
<path d="" fill="#000000" transform="translate(0,0)"/>
<path d="" fill="#000000" transform="translate(0,0)"/>
<path d="" fill="#000000" transform="translate(0,0)"/>
<path d="" fill="#000000" transform="translate(0,0)"/>
<path d="" fill="#000000" transform="translate(0,0)"/>
<path d="" fill="#000000" transform="translate(0,0)"/>
<path d="" fill="#000000" transform="translate(0,0)"/>
<path d="" fill="#000000" transform="translate(0,0)"/>
<path d="" fill="#000000" transform="translate(0,0)"/>
<path d="" fill="#000000" transform="translate(0,0)"/>
<path d="" fill="#000000" transform="translate(0,0)"/>
<path d="" fill="#000000" transform="translate(0,0)"/>
<path d="" fill="#000000" transform="translate(0,0)"/>
<path d="" fill="#000000" transform="translate(0,0)"/>
<path d="" fill="#000000" transform="translate(0,0)"/>
<path d="" fill="#FFFFFF" transform="translate(0,0)"/>
<path d="" fill="#000000" transform="translate(0,0)"/>
<path d="" fill="#000000" transform="translate(0,0)"/>
<path d="" fill="#000000" transform="translate(0,0)"/>
<path d="" fill="#000000" transform="translate(0,0)"/>
<path d="" fill="#000000" transform="translate(0,0)"/>
<path d="" fill="#000000" transform="translate(0,0)"/>
<path d="" fill="#000000" transform="translate(0,0)"/>
<path d="" fill="#000000" transform="translate(0,0)"/>
<path d="" fill="#000000" transform="translate(0,0)"/>
<path d="" fill="#000000" transform="translate(0,0)"/>
<path d="" fill="#000000" transform="translate(0,0)"/>
<path d="" fill="#000000" transform="translate(0,0)"/>
<path d="" fill="#000000" transform="translate(0,0)"/>
<path d="" fill="#000000" transform="translate(0,0)"/>
<path d="" fill="#000000" transform="translate(0,0)"/>
<path d="" fill="#000000" transform="translate(0,0)"/>
<path d="" fill="#000000" transform="translate(0,0)"/>
<path d="" fill="#000000" transform="translate(0,0)"/>
<path d="" fill="#000000" transform="translate(0,0)"/>
<path d="" fill="#000000" transform="translate(0,0)"/>
<path d="" fill="#000000" transform="translate(0,0)"/>
<path d="" fill="#000000" transform="translate(0,0)"/>
<path d="" fill="#000000" transform="translate(0,0)"/>
<path d="" fill="#000000" transform="translate(0,0)"/>
<path d="" fill="#000000" transform="translate(0,0)"/>
<path d="" fill="#000000" transform="translate(0,0)"/>
<path d="" fill="#000000" transform="translate(0,0)"/>
<path d="" fill="#000000" transform="translate(0,0)"/>
<path d="" fill="#000000" transform="translate(0,0)"/>
<path d="" fill="#000000" transform="translate(0,0)"/>
<path d="" fill="#000000" transform="translate(0,0)"/>
<path d="" fill="#000000" transform="translate(0,0)"/>
<path d="" fill="#000000" transform="translate(0,0)"/>
<path d="" fill="#000000" transform="translate(0,0)"/>
<path d="" fill="#000000" transform="translate(0,0)"/>
<path d="" fill="#000000" transform="translate(0,0)"/>
<path d="" fill="#000000" transform="translate(0,0)"/>
<path d="" fill="#000000" transform="translate(0,0)"/>
<path d="" fill="#000000" transform="translate(0,0)"/>
<path d="" fill="#FFFFFF" transform="translate(0,0)"/>
<path d="" fill="#000000" transform="translate(0,0)"/>
<path d="" fill="#000000" transform="translate(0,0)"/>
<path d="" fill="#000000" transform="translate(0,0)"/>
<path d="" fill="#000000" transform="translate(0,0)"/>
<path d="" fill="#000000" transform="translate(0,0)"/>
<path d="" fill="#000000" transform="translate(0,0)"/>
<path d="" fill="#000000" transform="translate(0,0)"/>
<path d="" fill="#FFFFFF" transform="translate(0,0)"/>
<path d="" fill="#000000" transform="translate(0,0)"/>
<path d="" fill="#000000" transform="translate(0,0)"/>
<path d="" fill="#000000" transform="translate(0,0)"/>
<path d="" fill="#000000" transform="translate(0,0)"/>
<path d="" fill="#000000" transform="translate(0,0)"/>
<path d="" fill="#000000" transform="translate(0,0)"/>
<path d="" fill="#000000" transform="translate(0,0)"/>
<path d="" fill="#000000" transform="translate(0,0)"/>
<path d="" fill="#000000" transform="translate(0,0)"/>
<path d="" fill="#000000" transform="translate(0,0)"/>
<path d="" fill="#000000" transform="translate(0,0)"/>
<path d="" fill="#000000" transform="translate(0,0)"/>
<path d="" fill="#000000" transform="translate(0,0)"/>
<path d="" fill="#000000" transform="translate(0,0)"/>
<path d="" fill="#000000" transform="translate(0,0)"/>
<path d="" fill="#FFFFFF" transform="translate(0,0)"/>
<path d="" fill="#000000" transform="translate(0,0)"/>
<path d="" fill="#000000" transform="translate(0,0)"/>
<path d="" fill="#000000" transform="translate(0,0)"/>
<path d="" fill="#FFFFFF" transform="translate(0,0)"/>
<path d="" fill="#000000" transform="translate(0,0)"/>
<path d="" fill="#000000" transform="translate(0,0)"/>
<path d="" fill="#000000" transform="translate(0,0)"/>
<path d="" fill="#000000" transform="translate(0,0)"/>
<path d="" fill="#000000" transform="translate(0,0)"/>
<path d="" fill="#000000" transform="translate(0,0)"/>
<path d="" fill="#000000" transform="translate(0,0)"/>
<path d="" fill="#000000" transform="translate(0,0)"/>
<path d="" fill="#000000" transform="translate(0,0)"/>
<path d="" fill="#FFFFFF" transform="translate(0,0)"/>
<path d="" fill="#000000" transform="translate(0,0)"/>
<path d="" fill="#000000" transform="translate(0,0)"/>
<path d="" fill="#000000" transform="translate(0,0)"/>
<path d="" fill="#000000" transform="translate(0,0)"/>
<path d="" fill="#000000" transform="translate(0,0)"/>
<path d="" fill="#FFFFFF" transform="translate(0,0)"/>
<path d="" fill="#000000" transform="translate(0,0)"/>
<path d="" fill="#000000" transform="translate(0,0)"/>
<path d="" fill="#000000" transform="translate(0,0)"/>
<path d="" fill="#000000" transform="translate(0,0)"/>
<path d="" fill="#000000" transform="translate(0,0)"/>
<path d="" fill="#000000" transform="translate(0,0)"/>
<path d="" fill="#000000" transform="translate(0,0)"/>
<path d="" fill="#000000" transform="translate(0,0)"/>
<path d="" fill="#000000" transform="translate(0,0)"/>
<path d="" fill="#000000" transform="translate(0,0)"/>
<path d="" fill="#000000" transform="translate(0,0)"/>
<path d="" fill="#000000" transform="translate(0,0)"/>
<path d="" fill="#000000" transform="translate(0,0)"/>
<path d="" fill="#000000" transform="translate(0,0)"/>
<path d="" fill="#000000" transform="translate(0,0)"/>
<path d="" fill="#000000" transform="translate(0,0)"/>
<path d="" fill="#FFFFFF" transform="translate(0,0)"/>
<path d="" fill="#000000" transform="translate(0,0)"/>
<path d="" fill="#000000" transform="translate(0,0)"/>
<path d="" fill="#000000" transform="translate(0,0)"/>
<path d="" fill="#000000" transform="translate(0,0)"/>
<path d="" fill="#000000" transform="translate(0,0)"/>
<path d="" fill="#000000" transform="translate(0,0)"/>
<path d="" fill="#000000" transform="translate(0,0)"/>
<path d="" fill="#000000" transform="translate(0,0)"/>
<path d="" fill="#000000" transform="translate(0,0)"/>
<path d="" fill="#000000" transform="translate(0,0)"/>
<path d="" fill="#000000" transform="translate(0,0)"/>
<path d="" fill="#000000" transform="translate(0,0)"/>
<path d="" fill="#000000" transform="translate(0,0)"/>
<path d="" fill="#000000" transform="translate(0,0)"/>
<path d="" fill="#000000" transform="translate(0,0)"/>
<path d="" fill="#000000" transform="translate(0,0)"/>
<path d="" fill="#000000" transform="translate(0,0)"/>
<path d="" fill="#000000" transform="translate(0,0)"/>
<path d="" fill="#000000" transform="translate(0,0)"/>
<path d="" fill="#000000" transform="translate(0,0)"/>
<path d="" fill="#000000" transform="translate(0,0)"/>
<path d="" fill="#000000" transform="translate(0,0)"/>
<path d="" fill="#000000" transform="translate(0,0)"/>
<path d="" fill="#000000" transform="translate(0,0)"/>
<path d="" fill="#000000" transform="translate(0,0)"/>
<path d="" fill="#000000" transform="translate(0,0)"/>
<path d="" fill="#000000" transform="translate(0,0)"/>
<path d="" fill="#000000" transform="translate(0,0)"/>
<path d="" fill="#000000" transform="translate(0,0)"/>
<path d="" fill="#000000" transform="translate(0,0)"/>
<path d="" fill="#000000" transform="translate(0,0)"/>
<path d="" fill="#000000" transform="translate(0,0)"/>
<path d="" fill="#000000" transform="translate(0,0)"/>
<path d="" fill="#000000" transform="translate(0,0)"/>
<path d="" fill="#000000" transform="translate(0,0)"/>
<path d="" fill="#000000" transform="translate(0,0)"/>
<path d="" fill="#000000" transform="translate(0,0)"/>
<path d="" fill="#000000" transform="translate(0,0)"/>
<path d="" fill="#000000" transform="translate(0,0)"/>
<path d="" fill="#000000" transform="translate(0,0)"/>
<path d="" fill="#000000" transform="translate(0,0)"/>
<path d="" fill="#000000" transform="translate(0,0)"/>
<path d="" fill="#000000" transform="translate(0,0)"/>
<path d="" fill="#000000" transform="translate(0,0)"/>
<path d="" fill="#000000" transform="translate(0,0)"/>
<path d="" fill="#000000" transform="translate(0,0)"/>
<path d="" fill="#000000" transform="translate(0,0)"/>
<path d="" fill="#000000" transform="translate(0,0)"/>
<path d="" fill="#000000" transform="translate(0,0)"/>
<path d="" fill="#000000" transform="translate(0,0)"/>
<path d="" fill="#000000" transform="translate(0,0)"/>
<path d="" fill="#000000" transform="translate(0,0)"/>
<path d="" fill="#000000" transform="translate(0,0)"/>
<path d="" fill="#000000" transform="translate(0,0)"/>
<path d="" fill="#000000" transform="translate(0,0)"/>
<path d="" fill="#000000" transform="translate(0,0)"/>
<path d="" fill="#000000" transform="translate(0,0)"/>
<path d="" fill="#000000" transform="translate(0,0)"/>
<path d="" fill="#000000" transform="translate(0,0)"/>
<path d="" fill="#000000" transform="translate(0,0)"/>
<path d="" fill="#FFFFFF" transform="translate(0,0)"/>
<path d="" fill="#000000" transform="translate(0,0)"/>
<path d="" fill="#000000" transform="translate(0,0)"/>
<path d="" fill="#000000" transform="translate(0,0)"/>
<path d="" fill="#000000" transform="translate(0,0)"/>
<path d="" fill="#000000" transform="translate(0,0)"/>
<path d="" fill="#000000" transform="translate(0,0)"/>
<path d="" fill="#000000" transform="translate(0,0)"/>
<path d="" fill="#000000" transform="translate(0,0)"/>
<path d="" fill="#000000" transform="translate(0,0)"/>
<path d="" fill="#000000" transform="translate(0,0)"/>
<path d="" fill="#000000" transform="translate(0,0)"/>
<path d="" fill="#000000" transform="translate(0,0)"/>
<path d="" fill="#000000" transform="translate(0,0)"/>
<path d="" fill="#000000" transform="translate(0,0)"/>
<path d="" fill="#000000" transform="translate(0,0)"/>
<path d="" fill="#000000" transform="translate(0,0)"/>
<path d="" fill="#000000" transform="translate(0,0)"/>
<path d="" fill="#000000" transform="translate(0,0)"/>
<path d="" fill="#000000" transform="translate(0,0)"/>
<path d="" fill="#000000" transform="translate(0,0)"/>
<path d="" fill="#000000" transform="translate(0,0)"/>
<path d="" fill="#000000" transform="translate(0,0)"/>
<path d="" fill="#FFFFFF" transform="translate(0,0)"/>
<path d="" fill="#000000" transform="translate(0,0)"/>
<path d="" fill="#000000" transform="translate(0,0)"/>
<path d="" fill="#000000" transform="translate(0,0)"/>
<path d="" fill="#000000" transform="translate(0,0)"/>
<path d="" fill="#000000" transform="translate(0,0)"/>
<path d="" fill="#000000" transform="translate(0,0)"/>
<path d="" fill="#000000" transform="translate(0,0)"/>
<path d="" fill="#000000" transform="translate(0,0)"/>
<path d="" fill="#000000" transform="translate(0,0)"/>
<path d="" fill="#000000" transform="translate(0,0)"/>
<path d="" fill="#000000" transform="translate(0,0)"/>
<path d="" fill="#000000" transform="translate(0,0)"/>
<path d="" fill="#000000" transform="translate(0,0)"/>
<path d="" fill="#000000" transform="translate(0,0)"/>
<path d="" fill="#000000" transform="translate(0,0)"/>
<path d="" fill="#000000" transform="translate(0,0)"/>
<path d="" fill="#000000" transform="translate(0,0)"/>
<path d="" fill="#000000" transform="translate(0,0)"/>
<path d="" fill="#000000" transform="translate(0,0)"/>
<path d="" fill="#000000" transform="translate(0,0)"/>
<path d="" fill="#000000" transform="translate(0,0)"/>
<path d="" fill="#000000" transform="translate(0,0)"/>
<path d="" fill="#000000" transform="translate(0,0)"/>
<path d="" fill="#000000" transform="translate(0,0)"/>
<path d="" fill="#000000" transform="translate(0,0)"/>
<path d="" fill="#000000" transform="translate(0,0)"/>
<path d="" fill="#000000" transform="translate(0,0)"/>
<path d="" fill="#000000" transform="translate(0,0)"/>
<path d="" fill="#000000" transform="translate(0,0)"/>
<path d="" fill="#000000" transform="translate(0,0)"/>
<path d="" fill="#000000" transform="translate(0,0)"/>
<path d="" fill="#000000" transform="translate(0,0)"/>
<path d="" fill="#000000" transform="translate(0,0)"/>
<path d="" fill="#000000" transform="translate(0,0)"/>
<path d="" fill="#000000" transform="translate(0,0)"/>
<path d="" fill="#000000" transform="translate(0,0)"/>
<path d="" fill="#000000" transform="translate(0,0)"/>
<path d="" fill="#000000" transform="translate(0,0)"/>
<path d="" fill="#000000" transform="translate(0,0)"/>
<path d="" fill="#000000" transform="translate(0,0)"/>
<path d="" fill="#000000" transform="translate(0,0)"/>
<path d="" fill="#000000" transform="translate(0,0)"/>
<path d="" fill="#000000" transform="translate(0,0)"/>
<path d="" fill="#000000" transform="translate(0,0)"/>
<path d="" fill="#000000" transform="translate(0,0)"/>
<path d="" fill="#000000" transform="translate(0,0)"/>
<path d="" fill="#000000" transform="translate(0,0)"/>
<path d="" fill="#000000" transform="translate(0,0)"/>
<path d="" fill="#000000" transform="translate(0,0)"/>
<path d="" fill="#000000" transform="translate(0,0)"/>
<path d="" fill="#000000" transform="translate(0,0)"/>
<path d="" fill="#000000" transform="translate(0,0)"/>
<path d="" fill="#000000" transform="translate(0,0)"/>
<path d="" fill="#000000" transform="translate(0,0)"/>
<path d="" fill="#000000" transform="translate(0,0)"/>
<path d="" fill="#000000" transform="translate(0,0)"/>
<path d="" fill="#000000" transform="translate(0,0)"/>
<path d="" fill="#000000" transform="translate(0,0)"/>
<path d="" fill="#000000" transform="translate(0,0)"/>
<path d="" fill="#000000" transform="translate(0,0)"/>
<path d="" fill="#000000" transform="translate(0,0)"/>
<path d="" fill="#000000" transform="translate(0,0)"/>
<path d="" fill="#000000" transform="translate(0,0)"/>
<path d="" fill="#000000" transform="translate(0,0)"/>
<path d="" fill="#000000" transform="translate(0,0)"/>
<path d="" fill="#000000" transform="translate(0,0)"/>
<path d="" fill="#000000" transform="translate(0,0)"/>
<path d="" fill="#000000" transform="translate(0,0)"/>
<path d="" fill="#000000" transform="translate(0,0)"/>
<path d="" fill="#000000" transform="translate(0,0)"/>
<path d="" fill="#000000" transform="translate(0,0)"/>
<path d="" fill="#000000" transform="translate(0,0)"/>
<path d="" fill="#000000" transform="translate(0,0)"/>
<path d="" fill="#000000" transform="translate(0,0)"/>
<path d="" fill="#000000" transform="translate(0,0)"/>
<path d="" fill="#000000" transform="translate(0,0)"/>
<path d="" fill="#000000" transform="translate(0,0)"/>
<path d="" fill="#000000" transform="translate(0,0)"/>
<path d="" fill="#000000" transform="translate(0,0)"/>
<path d="" fill="#000000" transform="translate(0,0)"/>
<path d="" fill="#000000" transform="translate(0,0)"/>
<path d="" fill="#000000" transform="translate(0,0)"/>
<path d="" fill="#000000" transform="translate(0,0)"/>
<path d="" fill="#000000" transform="translate(0,0)"/>
<path d="" fill="#000000" transform="translate(0,0)"/>
<path d="" fill="#000000" transform="translate(0,0)"/>
<path d="" fill="#000000" transform="translate(0,0)"/>
<path d="" fill="#000000" transform="translate(0,0)"/>
<path d="" fill="#000000" transform="translate(0,0)"/>
<path d="" fill="#FFFFFF" transform="translate(0,0)"/>
<path d="" fill="#000000" transform="translate(0,0)"/>
<path d="" fill="#000000" transform="translate(0,0)"/>
<path d="" fill="#000000" transform="translate(0,0)"/>
<path d="" fill="#000000" transform="translate(0,0)"/>
<path d="" fill="#000000" transform="translate(0,0)"/>
<path d="" fill="#000000" transform="translate(0,0)"/>
<path d="" fill="#000000" transform="translate(0,0)"/>
<path d="" fill="#FFFFFF" transform="translate(0,0)"/>
<path d="" fill="#000000" transform="translate(0,0)"/>
<path d="" fill="#000000" transform="translate(0,0)"/>
<path d="" fill="#000000" transform="translate(0,0)"/>
<path d="" fill="#000000" transform="translate(0,0)"/>
<path d="" fill="#000000" transform="translate(0,0)"/>
<path d="" fill="#000000" transform="translate(0,0)"/>
<path d="" fill="#000000" transform="translate(0,0)"/>
<path d="" fill="#000000" transform="translate(0,0)"/>
<path d="" fill="#000000" transform="translate(0,0)"/>
<path d="" fill="#FFFFFF" transform="translate(0,0)"/>
<path d="" fill="#000000" transform="translate(0,0)"/>
<path d="" fill="#000000" transform="translate(0,0)"/>
<path d="" fill="#000000" transform="translate(0,0)"/>
<path d="" fill="#000000" transform="translate(0,0)"/>
<path d="" fill="#000000" transform="translate(0,0)"/>
<path d="" fill="#000000" transform="translate(0,0)"/>
<path d="" fill="#000000" transform="translate(0,0)"/>
<path d="" fill="#000000" transform="translate(0,0)"/>
<path d="" fill="#FFFFFF" transform="translate(0,0)"/>
<path d="" fill="#000000" transform="translate(0,0)"/>
<path d="" fill="#000000" transform="translate(0,0)"/>
<path d="" fill="#000000" transform="translate(0,0)"/>
<path d="" fill="#000000" transform="translate(0,0)"/>
<path d="" fill="#000000" transform="translate(0,0)"/>
<path d="" fill="#000000" transform="translate(0,0)"/>
<path d="" fill="#000000" transform="translate(0,0)"/>
<path d="" fill="#000000" transform="translate(0,0)"/>
<path d="" fill="#000000" transform="translate(0,0)"/>
<path d="" fill="#000000" transform="translate(0,0)"/>
<path d="" fill="#000000" transform="translate(0,0)"/>
<path d="" fill="#000000" transform="translate(0,0)"/>
<path d="" fill="#000000" transform="translate(0,0)"/>
<path d="" fill="#000000" transform="translate(0,0)"/>
<path d="" fill="#000000" transform="translate(0,0)"/>
<path d="" fill="#000000" transform="translate(0,0)"/>
<path d="" fill="#000000" transform="translate(0,0)"/>
<path d="" fill="#000000" transform="translate(0,0)"/>
<path d="" fill="#000000" transform="translate(0,0)"/>
<path d="" fill="#000000" transform="translate(0,0)"/>
<path d="" fill="#000000" transform="translate(0,0)"/>
<path d="" fill="#000000" transform="translate(0,0)"/>
<path d="" fill="#000000" transform="translate(0,0)"/>
<path d="" fill="#000000" transform="translate(0,0)"/>
<path d="" fill="#000000" transform="translate(0,0)"/>
<path d="" fill="#000000" transform="translate(0,0)"/>
<path d="" fill="#000000" transform="translate(0,0)"/>
<path d="" fill="#000000" transform="translate(0,0)"/>
<path d="" fill="#000000" transform="translate(0,0)"/>
<path d="" fill="#FFFFFF" transform="translate(0,0)"/>
<path d="" fill="#000000" transform="translate(0,0)"/>
<path d="" fill="#000000" transform="translate(0,0)"/>
<path d="" fill="#000000" transform="translate(0,0)"/>
<path d="" fill="#000000" transform="translate(0,0)"/>
<path d="" fill="#000000" transform="translate(0,0)"/>
<path d="" fill="#000000" transform="translate(0,0)"/>
<path d="" fill="#000000" transform="translate(0,0)"/>
<path d="" fill="#000000" transform="translate(0,0)"/>
<path d="" fill="#000000" transform="translate(0,0)"/>
<path d="" fill="#000000" transform="translate(0,0)"/>
<path d="" fill="#000000" transform="translate(0,0)"/>
<path d="" fill="#000000" transform="translate(0,0)"/>
<path d="" fill="#000000" transform="translate(0,0)"/>
<path d="" fill="#000000" transform="translate(0,0)"/>
<path d="" fill="#000000" transform="translate(0,0)"/>
<path d="" fill="#000000" transform="translate(0,0)"/>
<path d="" fill="#000000" transform="translate(0,0)"/>
<path d="" fill="#000000" transform="translate(0,0)"/>
<path d="" fill="#FFFFFF" transform="translate(0,0)"/>
<path d="" fill="#000000" transform="translate(0,0)"/>
<path d="" fill="#000000" transform="translate(0,0)"/>
<path d="" fill="#000000" transform="translate(0,0)"/>
<path d="" fill="#000000" transform="translate(0,0)"/>
<path d="" fill="#000000" transform="translate(0,0)"/>
<path d="" fill="#000000" transform="translate(0,0)"/>
<path d="" fill="#000000" transform="translate(0,0)"/>
<path d="" fill="#000000" transform="translate(0,0)"/>
<path d="" fill="#000000" transform="translate(0,0)"/>
<path d="" fill="#000000" transform="translate(0,0)"/>
<path d="" fill="#000000" transform="translate(0,0)"/>
<path d="" fill="#000000" transform="translate(0,0)"/>
<path d="" fill="#000000" transform="translate(0,0)"/>
<path d="" fill="#000000" transform="translate(0,0)"/>
<path d="" fill="#000000" transform="translate(0,0)"/>
<path d="" fill="#000000" transform="translate(0,0)"/>
<path d="" fill="#000000" transform="translate(0,0)"/>
<path d="" fill="#000000" transform="translate(0,0)"/>
<path d="" fill="#000000" transform="translate(0,0)"/>
<path d="" fill="#000000" transform="translate(0,0)"/>
<path d="" fill="#000000" transform="translate(0,0)"/>
<path d="" fill="#000000" transform="translate(0,0)"/>
<path d="" fill="#000000" transform="translate(0,0)"/>
<path d="" fill="#000000" transform="translate(0,0)"/>
<path d="" fill="#000000" transform="translate(0,0)"/>
<path d="" fill="#000000" transform="translate(0,0)"/>
<path d="" fill="#000000" transform="translate(0,0)"/>
<path d="" fill="#000000" transform="translate(0,0)"/>
<path d="" fill="#000000" transform="translate(0,0)"/>
<path d="" fill="#000000" transform="translate(0,0)"/>
<path d="" fill="#FFFFFF" transform="translate(0,0)"/>
<path d="" fill="#000000" transform="translate(0,0)"/>
<path d="" fill="#000000" transform="translate(0,0)"/>
<path d="" fill="#000000" transform="translate(0,0)"/>
<path d="" fill="#000000" transform="translate(0,0)"/>
<path d="" fill="#000000" transform="translate(0,0)"/>
<path d="" fill="#000000" transform="translate(0,0)"/>
<path d="" fill="#000000" transform="translate(0,0)"/>
<path d="" fill="#000000" transform="translate(0,0)"/>
<path d="" fill="#FFFF00" transform="translate(0,0)"/>
<path d="" fill="#808080" transform="translate(0,0)"/>
<path d="" fill="#000000" transform="translate(0,0)"/>
<path d="" fill="#000000" transform="translate(0,0)"/>
<path d="" fill="#000000" transform="translate(0,0)"/>
<path d="" fill="#000000" transform="translate(0,0)"/>
<path d="" fill="#000000" transform="translate(0,0)"/>
<path d="" fill="#000000" transform="translate(0,0)"/>
<path d="" fill="#000000" transform="translate(0,0)"/>
<path d="" fill="#000000" transform="translate(0,0)"/>
<path d="" fill="#000000" transform="translate(0,0)"/>
<path d="" fill="#000000" transform="translate(0,0)"/>
<path d="" fill="#000000" transform="translate(0,0)"/>
<path d="" fill="#000000" transform="translate(0,0)"/>
<path d="" fill="#000000" transform="translate(0,0)"/>
<path d="" fill="#000000" transform="translate(0,0)"/>
<path d="" fill="#000000" transform="translate(0,0)"/>
<path d="" fill="#000000" transform="translate(0,0)"/>
<path d="" fill="#000000" transform="translate(0,0)"/>
<path d="" fill="#000000" transform="translate(0,0)"/>
<path d="" fill="#000000" transform="translate(0,0)"/>
<path d="" fill="#000000" transform="translate(0,0)"/>
<path d="" fill="#000000" transform="translate(0,0)"/>
<path d="" fill="#000000" transform="translate(0,0)"/>
<path d="" fill="#000000" transform="translate(0,0)"/>
<path d="" fill="#000000" transform="translate(0,0)"/>
<path d="" fill="#808080" transform="translate(0,0)"/>
<path d="" fill="#000000" transform="translate(0,0)"/>
<path d="" fill="#000000" transform="translate(0,0)"/>
<path d="" fill="#000000" transform="translate(0,0)"/>
<path d="" fill="#000000" transform="translate(0,0)"/>
<path d="" fill="#000000" transform="translate(0,0)"/>
<path d="" fill="#000000" transform="translate(0,0)"/>
<path d="" fill="#000000" transform="translate(0,0)"/>
<path d="" fill="#000000" transform="translate(0,0)"/>
<path d="" fill="#000000" transform="translate(0,0)"/>
<path d="" fill="#000000" transform="translate(0,0)"/>
<path d="" fill="#808080" transform="translate(0,0)"/>
<path d="" fill="#000000" transform="translate(0,0)"/>
<path d="" fill="#000000" transform="translate(0,0)"/>
<path d="" fill="#808080" transform="translate(0,0)"/>
<path d="" fill="#000000" transform="translate(0,0)"/>
<path d="" fill="#555555" transform="translate(0,0)"/>
<path d="" fill="#000000" transform="translate(0,0)"/>
<path d="" fill="#000000" transform="translate(0,0)"/>
<path d="" fill="#000000" transform="translate(0,0)"/>
<path d="" fill="#808080" transform="translate(0,0)"/>
<path d="" fill="#FFFFFF" transform="translate(0,0)"/>
<path d="" fill="#000000" transform="translate(0,0)"/>
<path d="" fill="#000000" transform="translate(0,0)"/>
<path d="" fill="#FFFFFF" transform="translate(0,0)"/>
<path d="" fill="#FFFFFF" transform="translate(0,0)"/>
<path d="" fill="#000000" transform="translate(0,0)"/>
<path d="" fill="#808080" transform="translate(0,0)"/>
<path d="" fill="#000000" transform="translate(0,0)"/>
<path d="" fill="#000000" transform="translate(0,0)"/>
<path d="" fill="#000000" transform="translate(0,0)"/>
<path d="" fill="#FFFFFF" transform="translate(0,0)"/>
<path d="" fill="#000000" transform="translate(0,0)"/>
<path d="" fill="#000000" transform="translate(0,0)"/>
<path d="" fill="#000000" transform="translate(0,0)"/>
<path d="" fill="#000000" transform="translate(0,0)"/>
<path d="" fill="#000000" transform="translate(0,0)"/>
<path d="" fill="#FFFFFF" transform="translate(0,0)"/>
<path d="" fill="#000000" transform="translate(0,0)"/>
<path d="" fill="#000000" transform="translate(0,0)"/>
<path d="" fill="#000000" transform="translate(0,0)"/>
<path d="" fill="#000000" transform="translate(0,0)"/>
<path d="" fill="#000000" transform="translate(0,0)"/>
<path d="" fill="#FFFFFF" transform="translate(0,0)"/>
<path d="" fill="#555555" transform="translate(0,0)"/>
<path d="" fill="#000000" transform="translate(0,0)"/>
<path d="" fill="#FFFFFF" transform="translate(0,0)"/>
<path d="" fill="#FFFFFF" transform="translate(0,0)"/>
<path d="" fill="#000000" transform="translate(0,0)"/>
<path d="" fill="#000000" transform="translate(0,0)"/>
<path d="" fill="#000000" transform="translate(0,0)"/>
<path d="" fill="#000000" transform="translate(0,0)"/>
<path d="" fill="#808080" transform="translate(0,0)"/>
<path d="" fill="#808080" transform="translate(0,0)"/>
<path d="" fill="#FFFFFF" transform="translate(0,0)"/>
<path d="" fill="#000000" transform="translate(0,0)"/>
<path d="" fill="#000000" transform="translate(0,0)"/>
<path d="" fill="#000000" transform="translate(0,0)"/>
<path d="" fill="#808080" transform="translate(0,0)"/>
<path d="" fill="#000000" transform="translate(0,0)"/>
<path d="" fill="#808080" transform="translate(0,0)"/>
<path d="" fill="#FF00FF" transform="translate(0,0)"/>
<path d="" fill="#000000" transform="translate(0,0)"/>
<path d="" fill="#000000" transform="translate(0,0)"/>
<path d="" fill="#000000" transform="translate(0,0)"/>
<path d="" fill="#000000" transform="translate(0,0)"/>
<path d="" fill="#808080" transform="translate(0,0)"/>
<path d="" fill="#FFFFFF" transform="translate(0,0)"/>
<path d="" fill="#FFFFFF" transform="translate(0,0)"/>
<path d="" fill="#000000" transform="translate(0,0)"/>
<path d="" fill="#00FFFF" transform="translate(0,0)"/>
<path d="" fill="#FFFFFF" transform="translate(0,0)"/>
<path d="" fill="#000000" transform="translate(0,0)"/>
<path d="" fill="#808080" transform="translate(0,0)"/>
<path d="" fill="#000000" transform="translate(0,0)"/>
<path d="" fill="#FFFFFF" transform="translate(0,0)"/>
<path d="" fill="#000000" transform="translate(0,0)"/>
<path d="" fill="#000000" transform="translate(0,0)"/>
<path d="" fill="#000000" transform="translate(0,0)"/>
</svg>
